<svg width="34" height="13" viewBox="0 0 34 13" fill="none" xmlns="http://www.w3.org/2000/svg">
<path d="M0.51123 12V1.43115H4.5542C6.49512 1.43115 7.68164 2.44922 7.68164 4.06055V4.0752C7.68164 5.1665 6.87598 6.1626 5.85791 6.3457V6.46289C7.30078 6.646 8.21631 7.63477 8.21631 9.02637V9.04102C8.21631 10.894 6.8833 12 4.63477 12H0.51123ZM4.27588 2.5957H1.82959V5.98682H3.93896C5.53564 5.98682 6.34863 5.41553 6.34863 4.30225V4.2876C6.34863 3.21826 5.58691 2.5957 4.27588 2.5957ZM4.3125 7.12207H1.82959V10.8354H4.43701C6.02637 10.8354 6.86133 10.1909 6.86133 8.9751V8.96045C6.86133 7.74463 5.99707 7.12207 4.3125 7.12207ZM12.3765 12.1392C10.875 12.1392 9.73975 11.231 9.73975 9.79541V9.78076C9.73975 8.37451 10.7798 7.56152 12.6182 7.45166L14.8813 7.3125V6.59473C14.8813 5.62061 14.2881 5.09326 13.1089 5.09326C12.1641 5.09326 11.5415 5.44482 11.3364 6.06006L11.3291 6.08203H10.0547L10.062 6.03809C10.2671 4.80029 11.4683 3.96533 13.1528 3.96533C15.0791 3.96533 16.1558 4.9541 16.1558 6.59473V12H14.8813V10.8354H14.7642C14.2661 11.6777 13.4385 12.1392 12.3765 12.1392ZM11.0435 9.76611C11.0435 10.5645 11.7246 11.0332 12.6401 11.0332C13.9365 11.0332 14.8813 10.1836 14.8813 9.05566V8.33789L12.772 8.46973C11.5708 8.54297 11.0435 8.96777 11.0435 9.75146V9.76611ZM21.7148 12.1392C19.5029 12.1392 18.0894 10.5352 18.0894 8.03027V8.01562C18.0894 5.56201 19.4956 3.96533 21.7075 3.96533C23.6265 3.96533 24.7764 5.07129 25.0107 6.47754L25.0181 6.52148H23.751L23.7437 6.49951C23.5459 5.72314 22.8428 5.09326 21.7075 5.09326C20.2866 5.09326 19.3931 6.23584 19.3931 8.01562V8.03027C19.3931 9.84668 20.3013 11.0112 21.7075 11.0112C22.7695 11.0112 23.4434 10.5425 23.7363 9.66357L23.751 9.61963L25.0107 9.6123L24.9961 9.69287C24.6738 11.1211 23.6118 12.1392 21.7148 12.1392ZM26.9517 12V0.969727H28.2261V7.5542H28.3433L31.7563 4.10449H33.3018L29.8594 7.42236L33.5288 12H31.9248L28.9658 8.28662L28.2261 9.00439V12H26.9517Z" fill="#3478F6"/>
</svg>
