<svg width="9" height="16" viewBox="0 0 9 16" fill="none" xmlns="http://www.w3.org/2000/svg">
<path d="M7.19824 15.293C7.40039 15.4863 7.64648 15.5918 7.92773 15.5918C8.5166 15.5918 8.97363 15.1348 8.97363 14.5547C8.97363 14.2646 8.85938 14.001 8.65723 13.7988L2.50488 7.78711L8.65723 1.79297C8.85938 1.59082 8.97363 1.31836 8.97363 1.03711C8.97363 0.457031 8.5166 0 7.92773 0C7.64648 0 7.40039 0.105469 7.20703 0.298828L0.369141 6.97852C0.123047 7.20703 0 7.48828 0 7.7959C0 8.10352 0.123047 8.36719 0.360352 8.60449L7.19824 15.293Z" fill="#3478F6"/>
</svg>
