<svg width="92" height="92" viewBox="0 0 92 92" fill="none" xmlns="http://www.w3.org/2000/svg">
<path d="M46 0C20.5976 0 0 20.5944 0 46C0 71.4056 20.5955 92 46 92C71.4065 92 92 71.4056 92 46C92 20.5944 71.4065 0 46 0ZM46 13.7545C54.4055 13.7545 61.2168 20.5682 61.2168 28.97C61.2168 37.3739 54.4055 44.1855 46 44.1855C37.5985 44.1855 30.7872 37.3739 30.7872 28.97C30.7872 20.5682 37.5985 13.7545 46 13.7545ZM45.9899 79.9731C37.6066 79.9731 29.9285 76.9199 24.0062 71.8663C22.5636 70.6357 21.7311 68.8313 21.7311 66.9379C21.7311 58.4169 28.6273 51.5972 37.15 51.5972H54.8541C63.3788 51.5972 70.2487 58.4169 70.2487 66.9379C70.2487 68.8333 69.4203 70.6337 67.9756 71.8643C62.0553 76.9199 54.3752 79.9731 45.9899 79.9731Z" fill="#909093"/>
</svg>
