<svg width="95" height="95" viewBox="0 0 95 95" fill="none" xmlns="http://www.w3.org/2000/svg">
<circle cx="47.5001" cy="47.5001" r="36.9444" fill="white"/>
<path d="M47.5 0C21.2692 0 0 21.265 0 47.4979C0 73.7308 21.2671 94.9958 47.5 94.9958C73.735 94.9958 95 73.7308 95 47.4979C95 21.265 73.735 0 47.5 0ZM47.5 14.2024C56.1796 14.2024 63.213 21.2379 63.213 29.9134C63.213 38.5909 56.1796 45.6243 47.5 45.6243C38.8246 45.6243 31.7912 38.5909 31.7912 29.9134C31.7912 21.2379 38.8246 14.2024 47.5 14.2024ZM47.4896 82.5773C38.8329 82.5773 30.9044 79.4247 24.789 74.2065C23.2993 72.9359 22.4397 71.0726 22.4397 69.1176C22.4397 60.3191 29.5607 53.2774 38.3614 53.2774H56.6428C65.4455 53.2774 72.5394 60.3191 72.5394 69.1176C72.5394 71.0747 71.684 72.9338 70.1922 74.2044C64.0789 79.4247 56.1483 82.5773 47.4896 82.5773Z" fill="#909093"/>
</svg>
