<svg width="24" height="24" viewBox="0 0 24 24" fill="none" xmlns="http://www.w3.org/2000/svg">
<path d="M13.9406 1C14.499 1 15.0319 1.23341 15.4105 1.64379L16.9703 3.33432C17.5382 3.94988 18.3376 4.3 19.1752 4.3H20C21.5693 4.3 23 5.73038 23 7.7V17.6C23 19.5696 21.5693 21 20 21H4C2.4307 21 1 19.5696 1 17.6V7.7C1 5.73038 2.4307 4.3 4 4.3H4.89003C5.79177 4.3 6.64568 3.89439 7.21541 3.19543L6.44028 2.56362L7.21541 3.19543L8.40468 1.73638C8.7845 1.27041 9.35377 1 9.95493 1H13.9406Z" fill="white" stroke="#808080" stroke-width="2"/>
<circle cx="12" cy="12" r="5" fill="white" stroke="#808080" stroke-width="2"/>
</svg>
