<svg width="21" height="20" viewBox="0 0 21 20" fill="none" xmlns="http://www.w3.org/2000/svg">
<path d="M18.5854 3.2002L17.4482 2.05469L18.0542 1.45703C18.3281 1.19141 18.7349 1.1582 18.9922 1.41553L19.1831 1.61475C19.4653 1.88867 19.4653 2.28711 19.1831 2.58594L18.5854 3.2002ZM8.59961 12.2563C8.44189 12.3228 8.27588 12.1318 8.34229 11.9907L9.08936 10.4302L16.834 2.68555L17.9712 3.80615L10.2183 11.5508L8.59961 12.2563ZM5.57812 17.6353C3.85156 17.6353 2.97168 16.7803 2.97168 15.062V5.49951C2.97168 3.78955 3.85156 2.92627 5.57812 2.92627H14.5015L13.165 4.2627H5.60303C4.77295 4.2627 4.30811 4.71094 4.30811 5.57422V14.9956C4.30811 15.8589 4.77295 16.2988 5.60303 16.2988H15.3066C15.8794 16.2988 16.3442 15.8589 16.3442 14.9956V7.5249L17.6807 6.18848V15.062C17.6807 16.772 16.8174 17.6353 15.3232 17.6353H5.57812Z" fill="#3478F6"/>
</svg>
