<svg width="66" height="18" viewBox="0 0 66 18" fill="none" xmlns="http://www.w3.org/2000/svg">
<path d="M0 17H65" stroke="#3478F6"/>
<path d="M14.6489 14V3.43115H21.0649V4.61768H15.9673V8.25049H20.6475V9.42236H15.9673V14H14.6489ZM23.0718 14V6.10449H24.3462V7.27637H24.4634C24.7637 6.44873 25.5034 5.96533 26.5728 5.96533C26.8145 5.96533 27.0854 5.99463 27.21 6.0166V7.25439C26.9463 7.21045 26.7046 7.18115 26.4263 7.18115C25.2104 7.18115 24.3462 7.9502 24.3462 9.10742V14H23.0718ZM29.4585 4.58105C28.9751 4.58105 28.5796 4.18555 28.5796 3.70215C28.5796 3.21875 28.9751 2.82324 29.4585 2.82324C29.9419 2.82324 30.3374 3.21875 30.3374 3.70215C30.3374 4.18555 29.9419 4.58105 29.4585 4.58105ZM28.814 14V6.10449H30.0884V14H28.814ZM35.7134 14.1392C33.4575 14.1392 32.0952 12.5571 32.0952 10.0815V10.0742C32.0952 7.63525 33.4868 5.96533 35.6328 5.96533C37.7788 5.96533 39.0825 7.56201 39.0825 9.92041V10.4185H33.3989C33.4355 12.0518 34.3364 13.0039 35.7427 13.0039C36.812 13.0039 37.4712 12.4985 37.6836 12.0225L37.7129 11.9565H38.9873L38.9727 12.0151C38.7017 13.0845 37.5737 14.1392 35.7134 14.1392ZM35.6255 7.10059C34.4536 7.10059 33.5601 7.89893 33.4209 9.40039H37.7861C37.6543 7.84033 36.79 7.10059 35.6255 7.10059ZM41.0601 14V6.10449H42.3345V7.29102H42.4517C42.8472 6.45605 43.5869 5.96533 44.7515 5.96533C46.5239 5.96533 47.5127 7.0127 47.5127 8.8877V14H46.2383V9.19531C46.2383 7.77441 45.6523 7.09326 44.3926 7.09326C43.1328 7.09326 42.3345 7.94287 42.3345 9.32715V14H41.0601ZM52.7349 14.1392C50.7354 14.1392 49.4243 12.5205 49.4243 10.0596V10.0449C49.4243 7.56934 50.728 5.96533 52.7349 5.96533C53.8188 5.96533 54.7637 6.50732 55.1958 7.34961H55.313V2.96973H56.5874V14H55.313V12.7402H55.1958C54.7124 13.6191 53.8335 14.1392 52.7349 14.1392ZM53.0278 13.0112C54.4634 13.0112 55.3423 11.8833 55.3423 10.0596V10.0449C55.3423 8.22119 54.4634 7.09326 53.0278 7.09326C51.585 7.09326 50.728 8.20654 50.728 10.0449V10.0596C50.728 11.8979 51.585 13.0112 53.0278 13.0112ZM61.7437 14.1392C59.9858 14.1392 58.7773 13.2896 58.6309 11.9858H59.9346C60.147 12.645 60.7769 13.0771 61.7876 13.0771C62.8496 13.0771 63.604 12.5718 63.604 11.854V11.8394C63.604 11.3047 63.2012 10.9312 62.2271 10.6968L61.0039 10.4038C59.5244 10.0522 58.8579 9.40771 58.8579 8.27246V8.26514C58.8579 6.9541 60.1177 5.96533 61.7949 5.96533C63.4502 5.96533 64.6001 6.79297 64.7759 8.08203H63.5234C63.355 7.45947 62.7397 7.02734 61.7876 7.02734C60.8501 7.02734 60.1616 7.51074 60.1616 8.20654V8.22119C60.1616 8.75586 60.5571 9.09277 61.4873 9.31982L62.7031 9.61279C64.1899 9.97168 64.9077 10.6162 64.9077 11.7441V11.7588C64.9077 13.165 63.5381 14.1392 61.7437 14.1392Z" fill="#3478F6"/>
<circle cx="5" cy="9" r="4.5" stroke="#3478F6"/>
<path d="M5 7V11" stroke="#3478F6" stroke-linecap="round" stroke-linejoin="round"/>
<path d="M3 9.00006H7" stroke="#3478F6" stroke-linecap="round" stroke-linejoin="round"/>
</svg>
