<svg width="45" height="45" viewBox="0 0 45 45" fill="none" xmlns="http://www.w3.org/2000/svg">
<path d="M22.225 3.70417C17.8145 3.68754 13.5429 5.24538 10.1786 8.09743C6.81438 10.9495 4.57834 14.9085 3.87282 19.2622C3.16729 23.6159 4.03861 28.0785 6.33 31.847C8.62139 35.6156 12.1824 38.4427 16.3724 39.8198C17.2985 39.968 17.5948 39.3938 17.5948 38.8938V35.7637C12.4645 36.875 11.3718 33.3375 11.3718 33.3375C11.0259 32.1872 10.2761 31.2006 9.26042 30.5594C7.57503 29.4111 9.39007 29.4481 9.39007 29.4481C9.97144 29.5233 10.5283 29.729 11.019 30.0497C11.5097 30.3704 11.9215 30.7979 12.2238 31.3002C12.7382 32.215 13.593 32.8897 14.6023 33.1775C15.6116 33.4654 16.6937 33.3432 17.6133 32.8374C17.6977 31.8985 18.1109 31.0196 18.7801 30.3557C14.8167 29.9482 10.4087 28.3554 10.4087 21.299C10.3551 19.4496 11.0188 17.6511 12.2608 16.2798C11.6969 14.686 11.7632 12.9369 12.446 11.3903C12.446 11.3903 14.0018 10.8903 17.5392 13.2424C20.5722 12.4271 23.7667 12.4271 26.7997 13.2424C30.3371 10.8532 31.8929 11.3903 31.8929 11.3903C32.5757 12.9369 32.642 14.686 32.0781 16.2798C33.3201 17.6511 33.9837 19.4496 33.9302 21.299C33.9302 28.3739 29.5963 29.9297 25.4662 30.3927C25.911 30.8398 26.2551 31.3768 26.4755 31.9677C26.6959 32.5587 26.7875 33.1899 26.7441 33.819V38.8938C26.7441 39.3938 27.0404 39.9865 27.985 39.8198C32.1673 38.4451 35.7232 35.6256 38.0151 31.8667C40.307 28.1079 41.185 23.6555 40.4916 19.308C39.7982 14.9605 37.5788 11.0021 34.2314 8.14267C30.884 5.28321 26.6275 3.70966 22.225 3.70417Z" fill="black"/>
</svg>
