<svg width="35" height="35" viewBox="0 0 35 35" fill="none" xmlns="http://www.w3.org/2000/svg">
<path fill-rule="evenodd" clip-rule="evenodd" d="M17.5 26.25C22.3325 26.25 26.25 22.3325 26.25 17.5C26.25 12.6675 22.3325 8.75 17.5 8.75C12.6675 8.75 8.75 12.6675 8.75 17.5C8.75 22.3325 12.6675 26.25 17.5 26.25ZM17.5 23.3333C20.7216 23.3333 23.3333 20.7216 23.3333 17.5C23.3333 14.2783 20.7216 11.6667 17.5 11.6667C14.2783 11.6667 11.6667 14.2783 11.6667 17.5C11.6667 20.7216 14.2783 23.3333 17.5 23.3333Z" fill="#0F0F0F"/>
<path d="M26.25 7.29167C25.4446 7.29167 24.7917 7.9446 24.7917 8.75C24.7917 9.55541 25.4446 10.2083 26.25 10.2083C27.0555 10.2083 27.7084 9.55541 27.7084 8.75C27.7084 7.9446 27.0555 7.29167 26.25 7.29167Z" fill="#0F0F0F"/>
<path fill-rule="evenodd" clip-rule="evenodd" d="M2.412 6.23592C1.45831 8.10764 1.45831 10.5579 1.45831 15.4583V19.5417C1.45831 24.4421 1.45831 26.8924 2.412 28.764C3.2509 30.4105 4.58947 31.7491 6.2359 32.5879C8.10763 33.5417 10.5579 33.5417 15.4583 33.5417H19.5416C24.4421 33.5417 26.8924 33.5417 28.764 32.5879C30.4105 31.7491 31.7491 30.4105 32.5879 28.764C33.5416 26.8924 33.5416 24.4421 33.5416 19.5417V15.4583C33.5416 10.5579 33.5416 8.10764 32.5879 6.23592C31.7491 4.58949 30.4105 3.25091 28.764 2.41202C26.8924 1.45833 24.4421 1.45833 19.5416 1.45833H15.4583C10.5579 1.45833 8.10763 1.45833 6.2359 2.41202C4.58947 3.25091 3.2509 4.58949 2.412 6.23592ZM19.5416 4.37499H15.4583C12.96 4.37499 11.2616 4.37727 9.94885 4.48452C8.67012 4.58899 8.0162 4.77836 7.56004 5.01078C6.46242 5.57006 5.57004 6.46244 5.01077 7.56005C4.77834 8.01622 4.58898 8.67014 4.4845 9.94886C4.37725 11.2616 4.37498 12.96 4.37498 15.4583V19.5417C4.37498 22.0401 4.37725 23.7383 4.4845 25.0511C4.58898 26.3299 4.77834 26.9838 5.01077 27.44C5.57004 28.5375 6.46242 29.4299 7.56004 29.9892C8.0162 30.2216 8.67012 30.4111 9.94885 30.5155C11.2616 30.6227 12.96 30.625 15.4583 30.625H19.5416C22.0401 30.625 23.7383 30.6227 25.0511 30.5155C26.3299 30.4111 26.9838 30.2216 27.44 29.9892C28.5375 29.4299 29.4299 28.5375 29.9891 27.44C30.2216 26.9838 30.411 26.3299 30.5155 25.0511C30.6226 23.7383 30.625 22.0401 30.625 19.5417V15.4583C30.625 12.96 30.6226 11.2616 30.5155 9.94886C30.411 8.67014 30.2216 8.01622 29.9891 7.56005C29.4299 6.46244 28.5375 5.57006 27.44 5.01078C26.9838 4.77836 26.3299 4.58899 25.0511 4.48452C23.7383 4.37727 22.0401 4.37499 19.5416 4.37499Z" fill="#0F0F0F"/>
</svg>
