<svg width="24" height="24" viewBox="0 0 24 24" fill="none" xmlns="http://www.w3.org/2000/svg">
<path fill-rule="evenodd" clip-rule="evenodd" d="M15.9887 11.3214C16.4464 10.8384 16.7035 10.1832 16.7035 9.5C16.7035 8.81683 16.4464 8.16165 15.9887 7.67858C15.5311 7.1955 14.9104 6.92412 14.2631 6.92412C13.6159 6.92412 12.9952 7.1955 12.5376 7.67858L11.2595 9.02762C11.0166 9.28404 10.6228 9.28404 10.3798 9.02762C10.1369 8.77121 10.1369 8.35547 10.3798 8.09905L11.6579 6.75001C12.3488 6.02066 13.286 5.61092 14.2631 5.61092C15.2403 5.61092 16.1774 6.02066 16.8684 6.75001C17.5594 7.47935 17.9475 8.46855 17.9475 9.5C17.9475 10.5314 17.5594 11.5207 16.8684 12.25L15.6186 13.5693C15.3756 13.8257 14.9818 13.8257 14.7389 13.5693C14.4959 13.3129 14.4959 12.8971 14.7389 12.6407L15.9887 11.3214ZM13.0656 15.3355C13.3086 15.5919 13.3086 16.0076 13.0656 16.264L11.8158 17.5833C11.1248 18.3127 10.1877 18.7224 9.21052 18.7224C8.23336 18.7224 7.29622 18.3127 6.60526 17.5833C5.91431 16.854 5.52613 15.8648 5.52613 14.8333C5.52613 13.8019 5.9143 12.8127 6.60526 12.0833L7.8833 10.7343C8.12623 10.4779 8.52008 10.4779 8.763 10.7343C9.00592 10.9907 9.00592 11.4064 8.763 11.6629L7.48496 13.0119C7.02731 13.495 6.77021 14.1502 6.77021 14.8333C6.77021 15.5165 7.02731 16.1717 7.48496 16.6548C7.94261 17.1378 8.56331 17.4092 9.21052 17.4092C9.85773 17.4092 10.4784 17.1378 10.9361 16.6548L12.1859 15.3355C12.4289 15.0791 12.8227 15.0791 13.0656 15.3355ZM14.1375 9.63262C14.3804 9.88904 14.3804 10.3048 14.1375 10.5612L10.1707 14.7483C9.92782 15.0047 9.53397 15.0047 9.29105 14.7483C9.04813 14.4919 9.04813 14.0762 9.29105 13.8198L13.2578 9.63262C13.5007 9.3762 13.8946 9.3762 14.1375 9.63262Z" fill="black"/>
</svg>
