<svg width="24" height="24" viewBox="0 0 24 24" fill="none" xmlns="http://www.w3.org/2000/svg">
<mask id="path-1-inside-1_3_1264" fill="white">
<path d="M22.6763 20.475C22.0693 21.425 21.3233 22.343 20.2532 22.7L20.2542 22.699C16.7259 23.8731 12 23 7.00001 18C1.99999 13 1.12689 8.27454 2.30097 4.74742C2.65599 3.67638 3.57506 2.93036 4.52612 2.32334C4.84594 2.11867 5.21631 2.00684 5.59595 2.0003C5.9756 1.99377 6.3496 2.09279 6.67627 2.28634C7.02527 2.48763 7.34864 2.7304 7.63933 3.00936C8.4884 3.85728 9.2006 4.83193 9.75047 5.89846C10.0495 6.47748 9.96249 7.16951 9.59246 7.70552L8.26271 9.6255C8.18167 9.74252 8.12992 9.87729 8.11183 10.0185C8.09314 10.1643 8.1103 10.3127 8.1656 10.4489C8.74864 11.8848 9.61492 13.1895 10.7135 14.2848C11.8094 15.3836 13.1148 16.25 14.5515 16.833C14.6871 16.888 14.8348 16.9053 14.98 16.887C15.1218 16.8692 15.2572 16.8174 15.3748 16.736L17.294 15.4078C17.83 15.0368 18.5221 14.9498 19.1021 15.2488C20.1683 15.7991 21.1427 16.5116 21.9903 17.3609C22.2693 17.6516 22.512 17.9749 22.7134 18.3239C22.9071 18.6507 23.0062 19.0248 22.9997 19.4047C22.9932 19.7845 22.8812 20.1551 22.6763 20.475Z"/>
</mask>
<path d="M20.2532 22.7L18.8376 21.2872L20.8862 24.5972L20.2532 22.7ZM22.6763 20.475L20.9921 19.3964L20.991 19.3981L22.6763 20.475ZM22.7134 18.3239L20.981 19.3233L20.9869 19.3336L20.993 19.3439L22.7134 18.3239ZM21.9903 17.3609L23.4334 15.9761L23.4197 15.9619L23.4058 15.948L21.9903 17.3609ZM19.1021 15.2488L20.0194 13.4716L20.0185 13.4711L19.1021 15.2488ZM17.294 15.4078L18.4321 17.0524L18.4322 17.0523L17.294 15.4078ZM15.3748 16.736L16.5129 18.3806L16.5129 18.3806L15.3748 16.736ZM14.5515 16.833L15.3035 14.9798L15.3035 14.9798L14.5515 16.833ZM10.7135 14.2848L12.1297 12.8725L12.1256 12.8684L10.7135 14.2848ZM8.1656 10.4489L10.0187 9.6965L10.0187 9.69649L8.1656 10.4489ZM8.26271 9.6255L6.61854 8.48677L6.61854 8.48677L8.26271 9.6255ZM9.59246 7.70552L11.2366 8.84426L11.2384 8.84173L9.59246 7.70552ZM9.75047 5.89846L7.97283 6.81497L7.97345 6.81616L9.75047 5.89846ZM7.63933 3.00936L9.05259 1.59419L9.0385 1.58013L9.02414 1.56634L7.63933 3.00936ZM6.67627 2.28634L5.65681 4.00701L5.66689 4.01298L5.67704 4.01884L6.67627 2.28634ZM5.59595 2.0003L5.63036 4.00001L5.59595 2.0003ZM4.52612 2.32334L5.60214 4.00922L5.60418 4.00791L4.52612 2.32334ZM2.30097 4.74742L4.1986 5.37909L4.19939 5.3767L2.30097 4.74742ZM7.00001 18L8.41423 16.5858L8.41422 16.5858L7.00001 18ZM20.2542 22.699L21.6697 24.1119L19.6227 20.8013L20.2542 22.699ZM8.11183 10.0185L10.0956 10.2727L10.0956 10.2727L8.11183 10.0185ZM14.98 16.887L14.7302 14.9027L14.7302 14.9027L14.98 16.887ZM20.8862 24.5972C22.6558 24.0068 23.7196 22.5566 24.3617 21.5518L20.991 19.3981C20.419 20.2934 19.9908 20.6792 19.6202 20.8028L20.8862 24.5972ZM24.3606 21.5535C24.7653 20.9215 24.9865 20.1895 24.9994 19.4391L21 19.3703C20.9998 19.3795 20.9971 19.3886 20.9921 19.3964L24.3606 21.5535ZM24.9994 19.4391C25.0123 18.6887 24.8165 17.9494 24.4337 17.3039L20.993 19.3439C20.9977 19.3519 21.0002 19.361 21 19.3703L24.9994 19.4391ZM24.4457 17.3245C24.1639 16.8359 23.8239 16.3831 23.4334 15.9761L20.5472 18.7456C20.7146 18.92 20.8602 19.114 20.981 19.3233L24.4457 17.3245ZM23.4058 15.948C22.412 14.9523 21.2696 14.1168 20.0194 13.4716L18.1848 17.026C19.0671 17.4814 19.8733 18.071 20.5748 18.7738L23.4058 15.948ZM20.0185 13.4711C18.692 12.7873 17.2118 13.0323 16.1558 13.7633L18.4322 17.0523C18.4321 17.0524 18.417 17.0635 18.3774 17.0674C18.3329 17.0718 18.2611 17.0654 18.1857 17.0265L20.0185 13.4711ZM16.1558 13.7632L14.2366 15.0914L16.5129 18.3806L18.4321 17.0524L16.1558 13.7632ZM15.3035 14.9798C14.1155 14.4977 13.0359 13.7812 12.1297 12.8725L9.29738 15.697C10.5829 16.9861 12.1142 18.0024 13.7994 18.6863L15.3035 14.9798ZM12.1256 12.8684C11.2171 11.9627 10.5008 10.8838 10.0187 9.6965L6.31254 11.2014C6.9965 12.8858 8.01273 14.4163 9.30151 15.7011L12.1256 12.8684ZM9.90688 10.7642L11.2366 8.84426L7.94829 6.56679L6.61854 8.48677L9.90688 10.7642ZM11.2384 8.84173C11.9663 7.78723 12.2126 6.30732 11.5275 4.98076L7.97345 6.81616C7.93384 6.73947 7.92758 6.66705 7.9319 6.62297C7.93392 6.60239 7.93798 6.58876 7.94072 6.58138C7.94347 6.57398 7.9458 6.5704 7.94655 6.56932L11.2384 8.84173ZM11.5281 4.98195C10.8833 3.73134 10.0482 2.58846 9.05259 1.59419L6.22607 4.42453C6.92859 5.1261 7.51787 5.93252 7.97283 6.81497L11.5281 4.98195ZM9.02414 1.56634C8.61707 1.17569 8.16423 0.835719 7.67549 0.553838L5.67704 4.01884C5.88632 4.13953 6.08022 4.28511 6.25452 4.45238L9.02414 1.56634ZM7.69572 0.565665C7.05038 0.183315 6.31153 -0.0123068 5.56154 0.000599672L5.63036 4.00001C5.63966 3.99985 5.64882 4.00227 5.65681 4.00701L7.69572 0.565665ZM5.56154 0.000599671C4.81155 0.0135061 4.07987 0.234433 3.44806 0.638762L5.60418 4.00791C5.612 4.00291 5.62107 4.00017 5.63036 4.00001L5.56154 0.000599671ZM3.4501 0.63746C2.44518 1.27885 0.990677 2.34387 0.402548 4.11814L4.19939 5.3767C4.32131 5.0089 4.70493 4.58186 5.60214 4.00922L3.4501 0.63746ZM0.403341 4.11575C-1.07392 8.55369 0.210495 14.0389 5.5858 19.4142L8.41422 16.5858C3.78949 11.9611 3.3277 7.9954 4.1986 5.37909L0.403341 4.11575ZM5.5858 19.4142C10.9612 24.7897 16.4469 26.0738 20.8857 24.5967L19.6227 20.8013C17.005 21.6724 13.0388 21.2103 8.41423 16.5858L5.5858 19.4142ZM18.8386 21.2862L18.8376 21.2872L21.6687 24.1129L21.6697 24.1119L18.8386 21.2862ZM6.61854 8.48677C6.35509 8.86716 6.18687 9.30528 6.12805 9.76426L10.0956 10.2727C10.073 10.4493 10.0082 10.6179 9.90688 10.7642L6.61854 8.48677ZM10.0187 9.69649C10.1001 9.89716 10.1181 10.0973 10.0956 10.2727L6.12805 9.76425C6.0682 10.2313 6.12045 10.7283 6.31254 11.2014L10.0187 9.69649ZM13.7994 18.6863C14.2703 18.8773 14.7647 18.9299 15.2297 18.8714L14.7302 14.9027C14.9048 14.8807 15.1039 14.8988 15.3035 14.9798L13.7994 18.6863ZM14.2366 15.0914C14.3836 14.9897 14.5529 14.925 14.7302 14.9027L15.2297 18.8714C15.6907 18.8133 16.1309 18.645 16.5129 18.3806L14.2366 15.0914Z" fill="black" mask="url(#path-1-inside-1_3_1264)"/>
</svg>
