<svg width="24" height="24" viewBox="0 0 24 24" fill="none" xmlns="http://www.w3.org/2000/svg">
<path d="M17.294 15.4078L15.1959 16.8598C15.133 16.9038 15.0603 16.9319 14.9841 16.9414C14.908 16.951 14.8307 16.9419 14.7588 16.9148C13.2404 16.3325 11.8619 15.4363 10.7136 14.2848C9.56203 13.1368 8.66577 11.7587 8.08337 10.2406C8.05646 10.1687 8.04749 10.0913 8.05725 10.0152C8.06701 9.93902 8.0952 9.86639 8.13937 9.8036L9.59247 7.70552C9.9625 7.16951 10.0495 6.47748 9.75048 5.89846C9.20061 4.83193 8.4884 3.85728 7.63934 3.00936C7.34865 2.7304 7.02528 2.48763 6.67628 2.28634C6.34961 2.09279 5.97561 1.99377 5.59596 2.0003C5.21632 2.00684 4.84594 2.11867 4.52613 2.32334C3.57507 2.93036 2.656 3.67638 2.30098 4.74742C1.1269 8.27454 2 13 7.00002 18M17.294 15.4078L7.00002 18M17.294 15.4078C17.83 15.0368 18.5221 14.9498 19.1021 15.2488C20.1683 15.7991 21.1427 16.5116 21.9903 17.3609L17.294 15.4078ZM7.00002 18L7.70713 17.2929C2.89475 12.4805 2.22731 8.13497 3.24979 5.06326L3.25019 5.06206C3.48866 4.34264 4.14 3.75611 5.06414 3.16628L5.06516 3.16563C5.22898 3.06079 5.4187 3.0035 5.61317 3.00016C5.80764 2.99681 5.99922 3.04753 6.16655 3.14667L6.16651 3.14673L6.17666 3.15259C6.45302 3.31198 6.70929 3.50389 6.93998 3.72422C7.71257 4.49726 8.36081 5.38527 8.86166 6.35671L8.86197 6.35731C8.9679 6.56243 8.96059 6.86024 8.7699 7.13686C8.76977 7.13705 8.76964 7.13723 8.76952 7.13742L7.3188 9.23205C7.18257 9.42701 7.0956 9.6521 7.06536 9.88806C7.03493 10.1255 7.06288 10.3669 7.14682 10.5911L7.14678 10.5911L7.14972 10.5988C7.78236 12.2478 8.75585 13.7448 10.0066 14.992C11.2541 16.2426 12.7514 17.216 14.4007 17.8485L14.4007 17.8486L14.4064 17.8507C14.6304 17.935 14.8715 17.9635 15.109 17.9336C15.3454 17.9039 15.571 17.8172 15.7664 17.6811C15.7674 17.6804 15.7683 17.6798 15.7692 17.6791L17.8631 16.2301L17.8631 16.23C18.1389 16.0391 18.4367 16.031 18.6434 16.1374C19.6147 16.6387 20.5025 17.2873 21.2754 18.0601C21.4958 18.2909 21.6877 18.5472 21.8472 18.8236L21.8471 18.8236L21.8532 18.8339C21.9524 19.0013 22.0032 19.1929 21.9999 19.3875C21.9965 19.582 21.9392 19.7718 21.8342 19.9357L21.8337 19.9365C21.2447 20.8583 20.6582 21.5099 19.9388 21.7507L19.9385 21.7502C16.8655 22.7727 12.5194 22.1052 7.70713 17.2929L7.00002 18Z" stroke="black" stroke-width="2"/>
</svg>
