<svg width="24" height="22" viewBox="0 0 24 22" fill="none" xmlns="http://www.w3.org/2000/svg">
<path d="M11.4668 14.1816C9.80664 14.1816 8.69434 12.9448 8.69434 11.1768V5.62354C8.69434 3.84717 9.80664 2.61865 11.4668 2.61865C13.1187 2.61865 14.231 3.84717 14.231 5.62354V11.1768C14.231 12.9448 13.1187 14.1816 11.4668 14.1816ZM5.52344 11.3096V9.62451C5.52344 9.27588 5.79736 9.00195 6.146 9.00195C6.50293 9.00195 6.77686 9.27588 6.77686 9.62451V11.2598C6.77686 14.0903 8.61963 15.9663 11.4668 15.9663C14.3057 15.9663 16.1484 14.0903 16.1484 11.2598V9.62451C16.1484 9.27588 16.4307 9.00195 16.7793 9.00195C17.1279 9.00195 17.4019 9.27588 17.4019 9.62451V11.3096C17.4019 14.5635 15.2603 16.8462 12.0894 17.1118V19.0459H15.1689C15.5176 19.0459 15.7998 19.3281 15.7998 19.6768C15.7998 20.0254 15.5176 20.2993 15.1689 20.2993H7.75635C7.40771 20.2993 7.12549 20.0254 7.12549 19.6768C7.12549 19.3281 7.40771 19.0459 7.75635 19.0459H10.8359V17.1118C7.67334 16.8462 5.52344 14.5635 5.52344 11.3096Z" fill="#909093"/>
</svg>
