<svg width="379" height="36" viewBox="0 0 379 36" fill="none" xmlns="http://www.w3.org/2000/svg">
<rect width="375" height="36" transform="translate(2)" fill="white"/>
<path d="M18 16C18 10.3995 18 7.59921 19.0899 5.46009C20.0487 3.57847 21.5785 2.04867 23.4601 1.08993C25.5992 0 28.3995 0 34 0H345C350.601 0 353.401 0 355.54 1.08993C357.422 2.04867 358.951 3.57847 359.91 5.46009C361 7.59921 361 10.3995 361 16V20C361 25.6005 361 28.4008 359.91 30.5399C358.951 32.4215 357.422 33.9513 355.54 34.9101C353.401 36 350.601 36 345 36H34C28.3995 36 25.5992 36 23.4601 34.9101C21.5785 33.9513 20.0487 32.4215 19.0899 30.5399C18 28.4008 18 25.6005 18 20V16Z" fill="#767680" fill-opacity="0.12"/>
<path d="M53.4536 24.2822C50.8306 24.2822 49.1372 22.9043 48.9629 20.9536L48.9546 20.8623H50.4487L50.457 20.9536C50.5649 22.1489 51.8101 22.9043 53.5366 22.9043C55.1636 22.9043 56.3506 22.0659 56.3506 20.8457V20.8374C56.3506 19.8413 55.6616 19.1606 54.0181 18.7954L52.6899 18.5049C50.291 17.9736 49.2534 16.8696 49.2534 15.1348V15.1265C49.2617 13.1426 50.9966 11.7397 53.4702 11.7397C55.8608 11.7397 57.5293 13.1509 57.6538 14.9355L57.6621 15.0518H56.168L56.1514 14.9438C55.9854 13.8896 54.9893 13.1094 53.4287 13.1177C51.9346 13.126 50.7808 13.8315 50.7808 15.085V15.0933C50.7808 16.0479 51.4365 16.6953 53.0635 17.0522L54.3916 17.3511C56.8901 17.9072 57.8779 18.9116 57.8779 20.6382V20.6465C57.8779 22.8877 56.1265 24.2822 53.4536 24.2822ZM63.4299 24.1577C60.8733 24.1577 59.3293 22.3647 59.3293 19.5591V19.5508C59.3293 16.7866 60.9065 14.894 63.3386 14.894C65.7707 14.894 67.2483 16.7036 67.2483 19.3765V19.9409H60.8068C60.8483 21.792 61.8693 22.8711 63.4631 22.8711C64.675 22.8711 65.4221 22.2983 65.6628 21.7588L65.696 21.6841H67.1403L67.1237 21.7505C66.8166 22.9624 65.5383 24.1577 63.4299 24.1577ZM63.3303 16.1807C62.0022 16.1807 60.9895 17.0854 60.8317 18.7871H65.779C65.6296 17.019 64.6501 16.1807 63.3303 16.1807ZM71.5385 24.1577C69.8368 24.1577 68.5502 23.1284 68.5502 21.5015V21.4849C68.5502 19.8911 69.7289 18.9697 71.8124 18.8452L74.3774 18.6875V17.874C74.3774 16.77 73.705 16.1724 72.3686 16.1724C71.2978 16.1724 70.5922 16.5708 70.3598 17.2681L70.3515 17.293H68.9071L68.9154 17.2432C69.1479 15.8403 70.5092 14.894 72.4184 14.894C74.6015 14.894 75.8217 16.0146 75.8217 17.874V24H74.3774V22.6802H74.2445C73.6801 23.6348 72.7421 24.1577 71.5385 24.1577ZM70.0278 21.4683C70.0278 22.373 70.7997 22.9043 71.8373 22.9043C73.3066 22.9043 74.3774 21.9414 74.3774 20.6631V19.8496L71.9867 19.999C70.6254 20.082 70.0278 20.5635 70.0278 21.4517V21.4683ZM78.0533 24V15.0518H79.4977V16.3799H79.6305C79.9708 15.4419 80.8092 14.894 82.0211 14.894C82.295 14.894 82.6022 14.9272 82.7433 14.9521V16.355C82.4445 16.3052 82.1705 16.272 81.8551 16.272C80.4772 16.272 79.4977 17.1436 79.4977 18.4551V24H78.0533ZM87.5316 24.1577C85.0247 24.1577 83.4227 22.3398 83.4227 19.501V19.4844C83.4227 16.7036 85.0164 14.894 87.5233 14.894C89.6981 14.894 91.0013 16.1475 91.2669 17.7412L91.2752 17.791H89.8392L89.8309 17.7661C89.6068 16.8862 88.8099 16.1724 87.5233 16.1724C85.9129 16.1724 84.9002 17.4673 84.9002 19.4844V19.501C84.9002 21.5596 85.9295 22.8794 87.5233 22.8794C88.7269 22.8794 89.4906 22.3481 89.8226 21.3521L89.8392 21.3022L91.2669 21.2939L91.2503 21.3853C90.8851 23.0039 89.6815 24.1577 87.5316 24.1577ZM93.0586 24V11.499H94.503V16.3965H94.6358C95.084 15.4502 95.9224 14.894 97.2422 14.894C99.251 14.894 100.372 16.0811 100.372 18.2061V24H98.9273V18.5547C98.9273 16.9443 98.2632 16.1724 96.8355 16.1724C95.4078 16.1724 94.503 17.1353 94.503 18.7041V24H93.0586Z" fill="#909093"/>
<path d="M344.467 21.1816C342.807 21.1816 341.694 19.9448 341.694 18.1768V12.6235C341.694 10.8472 342.807 9.61865 344.467 9.61865C346.119 9.61865 347.231 10.8472 347.231 12.6235V18.1768C347.231 19.9448 346.119 21.1816 344.467 21.1816ZM338.523 18.3096V16.6245C338.523 16.2759 338.797 16.002 339.146 16.002C339.503 16.002 339.777 16.2759 339.777 16.6245V18.2598C339.777 21.0903 341.62 22.9663 344.467 22.9663C347.306 22.9663 349.148 21.0903 349.148 18.2598V16.6245C349.148 16.2759 349.431 16.002 349.779 16.002C350.128 16.002 350.402 16.2759 350.402 16.6245V18.3096C350.402 21.5635 348.26 23.8462 345.089 24.1118V26.0459H348.169C348.518 26.0459 348.8 26.3281 348.8 26.6768C348.8 27.0254 348.518 27.2993 348.169 27.2993H340.756C340.408 27.2993 340.125 27.0254 340.125 26.6768C340.125 26.3281 340.408 26.0459 340.756 26.0459H343.836V24.1118C340.673 23.8462 338.523 21.5635 338.523 18.3096Z" fill="#909093"/>
<path d="M25.9092 16.4463C25.9092 12.7939 28.8809 9.82227 32.5332 9.82227C36.1855 9.82227 39.1572 12.7939 39.1572 16.4463C39.1572 17.957 38.6509 19.3433 37.7959 20.4556L41.855 24.5396C42.0293 24.7139 42.1289 24.9546 42.1289 25.2202C42.1289 25.7764 41.7388 26.1997 41.1743 26.1997C40.9087 26.1997 40.6597 26.1084 40.4688 25.9175L36.3848 21.8252C35.2974 22.6055 33.9775 23.0703 32.5332 23.0703C28.8809 23.0703 25.9092 20.0986 25.9092 16.4463ZM27.3286 16.4463C27.3286 19.3184 29.6611 21.6509 32.5332 21.6509C35.4053 21.6509 37.7378 19.3184 37.7378 16.4463C37.7378 13.5742 35.4053 11.2417 32.5332 11.2417C29.6611 11.2417 27.3286 13.5742 27.3286 16.4463Z" fill="#909093"/>
</svg>
