<svg width="24" height="22" viewBox="0 0 24 22" fill="none" xmlns="http://www.w3.org/2000/svg">
<path d="M3.90918 9.44629C3.90918 5.79395 6.88086 2.82227 10.5332 2.82227C14.1855 2.82227 17.1572 5.79395 17.1572 9.44629C17.1572 10.957 16.6509 12.3433 15.7959 13.4556L19.855 17.5396C20.0293 17.7139 20.1289 17.9546 20.1289 18.2202C20.1289 18.7764 19.7388 19.1997 19.1743 19.1997C18.9087 19.1997 18.6597 19.1084 18.4688 18.9175L14.3848 14.8252C13.2974 15.6055 11.9775 16.0703 10.5332 16.0703C6.88086 16.0703 3.90918 13.0986 3.90918 9.44629ZM5.32861 9.44629C5.32861 12.3184 7.66113 14.6509 10.5332 14.6509C13.4053 14.6509 15.7378 12.3184 15.7378 9.44629C15.7378 6.57422 13.4053 4.2417 10.5332 4.2417C7.66113 4.2417 5.32861 6.57422 5.32861 9.44629Z" fill="#909093"/>
</svg>
