<svg width="375" height="44" viewBox="0 0 375 44" fill="none" xmlns="http://www.w3.org/2000/svg">
<rect opacity="0.35" x="336.833" y="17.8333" width="21" height="10.3333" rx="2.16667" stroke="black"/>
<path opacity="0.4" d="M359.333 21V25C360.138 24.6612 360.661 23.8731 360.661 23C360.661 22.1269 360.138 21.3388 359.333 21Z" fill="black"/>
<rect x="338.333" y="19.3333" width="18" height="7.33333" rx="1.33333" fill="black"/>
<path fill-rule="evenodd" clip-rule="evenodd" d="M323.667 19.6152C325.892 19.6153 328.031 20.4694 329.644 22.001C329.765 22.1192 329.959 22.1177 330.079 21.9976L331.239 20.8273C331.3 20.7664 331.334 20.6839 331.333 20.598C331.333 20.5122 331.298 20.4301 331.237 20.3699C327.005 16.3176 320.329 16.3176 316.097 20.3699C316.035 20.43 316.001 20.5121 316 20.598C315.999 20.6838 316.033 20.7663 316.094 20.8273L317.255 21.9976C317.374 22.1179 317.568 22.1194 317.69 22.001C319.302 20.4693 321.442 19.6152 323.667 19.6152ZM323.667 23.4227C324.889 23.4227 326.068 23.8766 326.974 24.6964C327.097 24.8127 327.29 24.8102 327.409 24.6907L328.569 23.5204C328.63 23.459 328.663 23.3757 328.663 23.2892C328.662 23.2027 328.626 23.1201 328.564 23.0599C325.805 20.4955 321.532 20.4955 318.773 23.0599C318.71 23.1201 318.675 23.2027 318.674 23.2893C318.673 23.3758 318.707 23.4591 318.768 23.5204L319.927 24.6907C320.047 24.8102 320.24 24.8127 320.362 24.6964C321.268 23.8772 322.446 23.4233 323.667 23.4227ZM325.989 25.9846C325.991 26.0714 325.957 26.155 325.895 26.2158L323.89 28.2378C323.831 28.2972 323.751 28.3307 323.667 28.3307C323.583 28.3307 323.503 28.2972 323.445 28.2378L321.439 26.2158C321.377 26.155 321.343 26.0713 321.345 25.9845C321.347 25.8977 321.384 25.8156 321.449 25.7574C322.729 24.6751 324.605 24.6751 325.886 25.7574C325.95 25.8156 325.988 25.8978 325.989 25.9846Z" fill="black"/>
<path fill-rule="evenodd" clip-rule="evenodd" d="M310 17.6667H309C308.448 17.6667 308 18.1144 308 18.6667V27.3333C308 27.8856 308.448 28.3333 309 28.3333H310C310.552 28.3333 311 27.8856 311 27.3333V18.6667C311 18.1144 310.552 17.6667 310 17.6667ZM304.333 20H305.333C305.886 20 306.333 20.4477 306.333 21V27.3333C306.333 27.8856 305.886 28.3333 305.333 28.3333H304.333C303.781 28.3333 303.333 27.8856 303.333 27.3333V21C303.333 20.4477 303.781 20 304.333 20ZM300.667 22.3333H299.667C299.114 22.3333 298.667 22.781 298.667 23.3333V27.3333C298.667 27.8856 299.114 28.3333 299.667 28.3333H300.667C301.219 28.3333 301.667 27.8856 301.667 27.3333V23.3333C301.667 22.781 301.219 22.3333 300.667 22.3333ZM296 24.3333H295C294.448 24.3333 294 24.781 294 25.3333V27.3333C294 27.8856 294.448 28.3333 295 28.3333H296C296.552 28.3333 297 27.8856 297 27.3333V25.3333C297 24.781 296.552 24.3333 296 24.3333Z" fill="black"/>
<path d="M37.1246 17.1675C39.3805 17.1675 41.3434 18.7715 41.3434 22.5801V22.5947C41.3434 26.1543 39.7394 28.2637 37.0807 28.2637C35.1398 28.2637 33.6896 27.1138 33.3527 25.4951L33.338 25.4146H35.1984L35.2204 25.4878C35.4987 26.2275 36.1505 26.7109 37.0807 26.7109C38.7579 26.7109 39.4684 25.0703 39.549 23.0488C39.549 22.9683 39.5563 22.8877 39.5563 22.8071H39.4098C39.0216 23.6421 38.0988 24.3818 36.6486 24.3818C34.6198 24.3818 33.1989 22.9023 33.1989 20.8955V20.8809C33.1989 18.7349 34.8322 17.1675 37.1246 17.1675ZM37.1173 22.9316C38.3112 22.9316 39.2267 22.0674 39.2267 20.8735V20.8589C39.2267 19.6504 38.3112 18.7056 37.1393 18.7056C35.9747 18.7056 35.0446 19.6357 35.0446 20.8149V20.8296C35.0446 22.0527 35.9162 22.9316 37.1173 22.9316ZM44.4286 21.1519C43.7621 21.1519 43.264 20.6392 43.264 19.9946C43.264 19.3428 43.7621 18.8374 44.4286 18.8374C45.1024 18.8374 45.5931 19.3428 45.5931 19.9946C45.5931 20.6392 45.1024 21.1519 44.4286 21.1519ZM44.4286 26.5864C43.7621 26.5864 43.264 26.0811 43.264 25.4292C43.264 24.7773 43.7621 24.272 44.4286 24.272C45.1024 24.272 45.5931 24.7773 45.5931 25.4292C45.5931 26.0811 45.1024 26.5864 44.4286 26.5864ZM52.6407 28V25.9712H47.4698V24.4258C48.8395 22.0454 50.3409 19.6138 51.7765 17.4312H54.4498V24.4111H55.8707V25.9712H54.4498V28H52.6407ZM49.2277 24.4551H52.67V18.9399H52.5602C51.4762 20.5952 50.253 22.5508 49.2277 24.3452V24.4551ZM60.0106 28V19.2915H59.8861L57.2567 21.1519V19.3721L60.0179 17.4312H61.9003V28H60.0106Z" fill="black"/>
</svg>
