<svg width="67" height="12" viewBox="0 0 67 12" fill="none" xmlns="http://www.w3.org/2000/svg">
<g id="Frame" clip-path="url(#clip0_28_90)">
<g id="container">
<g id="battery">
<path id="Rectangle" d="M60.9 2.16699H46.1C45.2163 2.16699 44.5 2.88334 44.5 3.76699V8.23399C44.5 9.11765 45.2163 9.83399 46.1 9.83399H60.9C61.7837 9.83399 62.5 9.11765 62.5 8.23399V3.76699C62.5 2.88334 61.7837 2.16699 60.9 2.16699Z" fill="#0F1828"/>
</g>
<path id="combinedShape" d="M15.3 11.39C14.9817 11.39 14.6765 11.2636 14.4515 11.0385C14.2264 10.8135 14.1 10.5083 14.1 10.19V1.89C14.1 1.57174 14.2264 1.26652 14.4515 1.04147C14.6765 0.816431 14.9817 0.690002 15.3 0.690002H15.9C16.2183 0.690002 16.5235 0.816431 16.7485 1.04147C16.9736 1.26652 17.1 1.57174 17.1 1.89V10.19C17.1 10.5083 16.9736 10.8135 16.7485 11.0385C16.5235 11.2636 16.2183 11.39 15.9 11.39H15.3ZM10.6 11.39C10.2817 11.39 9.97651 11.2636 9.75147 11.0385C9.52643 10.8135 9.4 10.5083 9.4 10.19V4.29C9.4 3.97174 9.52643 3.66652 9.75147 3.44147C9.97651 3.21643 10.2817 3.09 10.6 3.09H11.2C11.5183 3.09 11.8235 3.21643 12.0485 3.44147C12.2736 3.66652 12.4 3.97174 12.4 4.29V10.19C12.4 10.5083 12.2736 10.8135 12.0485 11.0385C11.8235 11.2636 11.5183 11.39 11.2 11.39H10.6ZM6 11.39C5.68174 11.39 5.37652 11.2636 5.15147 11.0385C4.92643 10.8135 4.8 10.5083 4.8 10.19V6.59C4.8 6.27174 4.92643 5.96652 5.15147 5.74147C5.37652 5.51643 5.68174 5.39 6 5.39H6.6C6.91826 5.39 7.22348 5.51643 7.44853 5.74147C7.67357 5.96652 7.8 6.27174 7.8 6.59V10.19C7.8 10.5083 7.67357 10.8135 7.44853 11.0385C7.22348 11.2636 6.91826 11.39 6.6 11.39H6ZM1.2 11.39C0.88174 11.39 0.576516 11.2636 0.351472 11.0385C0.126428 10.8135 0 10.5083 0 10.19L0 8.59C0 8.27174 0.126428 7.96652 0.351472 7.74147C0.576516 7.51643 0.88174 7.39 1.2 7.39H1.8C2.11826 7.39 2.42348 7.51643 2.64853 7.74147C2.87357 7.96652 3 8.27174 3 8.59V10.19C3 10.5083 2.87357 10.8135 2.64853 11.0385C2.42348 11.2636 2.11826 11.39 1.8 11.39H1.2Z" fill="#0F1828"/>
<path id="wifi" d="M29.8 11.547C29.7585 11.5468 29.7174 11.5384 29.6791 11.5223C29.6409 11.5061 29.6062 11.4826 29.577 11.453L27.562 9.422C27.5313 9.3917 27.507 9.35543 27.4908 9.31542C27.4746 9.27541 27.4667 9.23251 27.4676 9.18935C27.4685 9.14618 27.4783 9.10366 27.4962 9.0644C27.5142 9.02513 27.54 8.98995 27.572 8.961C28.195 8.4341 28.9846 8.145 29.8005 8.145C30.6165 8.145 31.406 8.4341 32.029 8.961C32.0604 8.99011 32.0855 9.02537 32.1027 9.0646C32.1199 9.10382 32.1289 9.14617 32.129 9.189C32.1298 9.23225 32.1218 9.27521 32.1055 9.31526C32.0891 9.35532 32.0648 9.39164 32.034 9.422L30.024 11.454C29.9947 11.4835 29.9598 11.507 29.9213 11.5229C29.8829 11.5389 29.8416 11.5471 29.8 11.547ZM33.337 7.98C33.2569 7.9805 33.1797 7.94964 33.122 7.894C32.2125 7.06981 31.0289 6.61333 29.8015 6.61333C28.5741 6.61333 27.3905 7.06981 26.481 7.894C26.4223 7.95064 26.3437 7.98195 26.2622 7.9812C26.1806 7.98046 26.1026 7.9477 26.045 7.89L24.88 6.712C24.8493 6.68176 24.825 6.64573 24.8083 6.60598C24.7917 6.56624 24.7831 6.52359 24.7831 6.4805C24.7831 6.43742 24.7917 6.39477 24.8083 6.35502C24.825 6.31528 24.8493 6.27924 24.88 6.249C26.2159 5.00657 27.9727 4.31592 29.797 4.31592C31.6214 4.31592 33.3781 5.00657 34.714 6.249C34.7447 6.27924 34.7691 6.31528 34.7857 6.35502C34.8023 6.39477 34.8109 6.43742 34.8109 6.4805C34.8109 6.52359 34.8023 6.56624 34.7857 6.60598C34.7691 6.64573 34.7447 6.68176 34.714 6.712L33.559 7.89C33.5298 7.91907 33.4952 7.94208 33.4571 7.9577C33.419 7.97331 33.3782 7.98124 33.337 7.981V7.98ZM36.02 5.273C35.939 5.27317 35.8611 5.24158 35.803 5.185C34.1834 3.64576 32.0344 2.78747 29.8 2.78747C27.5656 2.78747 25.4166 3.64576 23.797 5.185C23.7387 5.24173 23.6604 5.27332 23.579 5.273C23.5381 5.27317 23.4975 5.26512 23.4597 5.24932C23.4219 5.23351 23.3877 5.21028 23.359 5.181L22.194 4.005C22.1638 3.97482 22.1398 3.93897 22.1234 3.8995C22.1071 3.86003 22.0986 3.81773 22.0986 3.775C22.0986 3.73228 22.1071 3.68997 22.1234 3.65051C22.1398 3.61104 22.1638 3.57519 22.194 3.545C24.2398 1.58467 26.9636 0.490265 29.797 0.490265C32.6304 0.490265 35.3543 1.58467 37.4 3.545C37.4304 3.57512 37.4545 3.61095 37.4709 3.65043C37.4873 3.6899 37.4958 3.73224 37.4958 3.775C37.4958 3.81777 37.4873 3.8601 37.4709 3.89958C37.4545 3.93905 37.4304 3.97488 37.4 4.005L36.24 5.181C36.2114 5.21028 36.1771 5.23351 36.1393 5.24932C36.1016 5.26512 36.061 5.27317 36.02 5.273Z" fill="#0F1828"/>
</g>
</g>
<defs>
<clipPath id="clip0_28_90">
<rect width="67" height="11.5" fill="white" transform="translate(0 0.25)"/>
</clipPath>
</defs>
</svg>
