<svg width="22" height="22" viewBox="0 0 22 22" fill="none" xmlns="http://www.w3.org/2000/svg">
<path d="M7.25 13.5V13.5C9.63741 14.5611 12.3626 14.5611 14.75 13.5V13.5" stroke="black" stroke-width="2" stroke-linecap="round"/>
<path fill-rule="evenodd" clip-rule="evenodd" d="M0.833313 6.83331C0.833313 3.5196 3.5196 0.833313 6.83331 0.833313H15.1666C18.4804 0.833313 21.1666 3.5196 21.1666 6.83331V12.6666H19.1666V6.83331C19.1666 4.62417 17.3758 2.83331 15.1666 2.83331H6.83331C4.62417 2.83331 2.83331 4.62417 2.83331 6.83331V15.1666C2.83331 17.3758 4.62417 19.1666 6.83331 19.1666H12.6666V21.1666H6.83331C3.5196 21.1666 0.833313 18.4804 0.833313 15.1666V6.83331ZM8.49998 9.33331C8.49998 9.79355 8.12688 10.1666 7.66665 10.1666C7.20641 10.1666 6.83331 9.79355 6.83331 9.33331C6.83331 8.87308 7.20641 8.49998 7.66665 8.49998C8.12688 8.49998 8.49998 8.87308 8.49998 9.33331ZM14.3333 10.1666C14.7936 10.1666 15.1666 9.79355 15.1666 9.33331C15.1666 8.87308 14.7936 8.49998 14.3333 8.49998C13.8731 8.49998 13.5 8.87308 13.5 9.33331C13.5 9.79355 13.8731 10.1666 14.3333 10.1666Z" fill="black"/>
<path d="M12.8333 16.8333C12.8333 14.6242 14.6242 12.8333 16.8333 12.8333H19.4191L16.1262 16.1262L12.8333 19.4191V16.8333Z" fill="white" stroke="black" stroke-width="2"/>
</svg>
