<svg width="29" height="12" viewBox="0 0 29 12" fill="none" xmlns="http://www.w3.org/2000/svg">
<path d="M4.12465 0.16748C6.38051 0.16748 8.3434 1.77148 8.3434 5.58008V5.59473C8.3434 9.1543 6.73939 11.2637 4.0807 11.2637C2.13978 11.2637 0.68959 10.1138 0.352675 8.49512L0.338027 8.41455H2.19838L2.22035 8.48779C2.49867 9.22754 3.15053 9.71094 4.0807 9.71094C5.75795 9.71094 6.4684 8.07031 6.54896 6.04883C6.54896 5.96826 6.55629 5.8877 6.55629 5.80713H6.4098C6.02162 6.64209 5.09877 7.38184 3.64857 7.38184C1.61977 7.38184 0.198867 5.90234 0.198867 3.89551V3.88086C0.198867 1.73486 1.83217 0.16748 4.12465 0.16748ZM4.11732 5.93164C5.31117 5.93164 6.2267 5.06738 6.2267 3.87354V3.85889C6.2267 2.65039 5.31117 1.70557 4.1393 1.70557C2.97475 1.70557 2.04457 2.63574 2.04457 3.81494V3.82959C2.04457 5.05273 2.91615 5.93164 4.11732 5.93164ZM11.4286 4.15186C10.7621 4.15186 10.264 3.63916 10.264 2.99463C10.264 2.34277 10.7621 1.8374 11.4286 1.8374C12.1024 1.8374 12.5931 2.34277 12.5931 2.99463C12.5931 3.63916 12.1024 4.15186 11.4286 4.15186ZM11.4286 9.58643C10.7621 9.58643 10.264 9.08105 10.264 8.4292C10.264 7.77734 10.7621 7.27197 11.4286 7.27197C12.1024 7.27197 12.5931 7.77734 12.5931 8.4292C12.5931 9.08105 12.1024 9.58643 11.4286 9.58643ZM19.6407 11V8.97119H14.4698V7.42578C15.8395 5.04541 17.3409 2.61377 18.7765 0.431152H21.4498V7.41113H22.8707V8.97119H21.4498V11H19.6407ZM16.2277 7.45508H19.67V1.93994H19.5602C18.4762 3.59521 17.253 5.55078 16.2277 7.34521V7.45508ZM27.0106 11V2.2915H26.8861L24.2567 4.15186V2.37207L27.0179 0.431152H28.9003V11H27.0106Z" fill="black"/>
</svg>
