<svg width="54" height="22" viewBox="0 0 54 22" fill="none" xmlns="http://www.w3.org/2000/svg">
<path d="M16.1246 10.1675C18.3805 10.1675 20.3434 11.7715 20.3434 15.5801V15.5947C20.3434 19.1543 18.7394 21.2637 16.0807 21.2637C14.1398 21.2637 12.6896 20.1138 12.3527 18.4951L12.338 18.4146H14.1984L14.2204 18.4878C14.4987 19.2275 15.1505 19.7109 16.0807 19.7109C17.7579 19.7109 18.4684 18.0703 18.549 16.0488C18.549 15.9683 18.5563 15.8877 18.5563 15.8071H18.4098C18.0216 16.6421 17.0988 17.3818 15.6486 17.3818C13.6198 17.3818 12.1989 15.9023 12.1989 13.8955V13.8809C12.1989 11.7349 13.8322 10.1675 16.1246 10.1675ZM16.1173 15.9316C17.3112 15.9316 18.2267 15.0674 18.2267 13.8735V13.8589C18.2267 12.6504 17.3112 11.7056 16.1393 11.7056C14.9747 11.7056 14.0446 12.6357 14.0446 13.8149V13.8296C14.0446 15.0527 14.9162 15.9316 16.1173 15.9316ZM23.4286 14.1519C22.7621 14.1519 22.264 13.6392 22.264 12.9946C22.264 12.3428 22.7621 11.8374 23.4286 11.8374C24.1024 11.8374 24.5931 12.3428 24.5931 12.9946C24.5931 13.6392 24.1024 14.1519 23.4286 14.1519ZM23.4286 19.5864C22.7621 19.5864 22.264 19.0811 22.264 18.4292C22.264 17.7773 22.7621 17.272 23.4286 17.272C24.1024 17.272 24.5931 17.7773 24.5931 18.4292C24.5931 19.0811 24.1024 19.5864 23.4286 19.5864ZM31.6407 21V18.9712H26.4698V17.4258C27.8395 15.0454 29.3409 12.6138 30.7765 10.4312H33.4498V17.4111H34.8707V18.9712H33.4498V21H31.6407ZM28.2277 17.4551H31.67V11.9399H31.5602C30.4762 13.5952 29.253 15.5508 28.2277 17.3452V17.4551ZM39.0106 21V12.2915H38.8861L36.2567 14.1519V12.3721L39.0179 10.4312H40.9003V21H39.0106Z" fill="black"/>
</svg>
