<svg width="24" height="24" viewBox="0 0 24 24" fill="none" xmlns="http://www.w3.org/2000/svg">
<path d="M2.10852 5.00434C2.655 4.3236 3.34307 4 4 4H15.2222C15.8792 4 16.5672 4.3236 17.1137 5.00434C17.6648 5.69085 18 6.66056 18 7.70588V18.2941C18 19.3394 17.6648 20.3092 17.1137 20.9957C16.5672 21.6764 15.8792 22 15.2222 22H4C3.34307 22 2.655 21.6764 2.10852 20.9957C1.5574 20.3092 1.22222 19.3394 1.22222 18.2941V7.70588C1.22222 6.66056 1.5574 5.69085 2.10852 5.00434Z" stroke="black" stroke-width="2"/>
<mask id="path-2-inside-1_3_1266" fill="white">
<path d="M22.3107 17.9037L17.9672 16.2117C17.6765 16.0984 17.432 15.9242 17.2612 15.7087C17.0903 15.4932 16.9999 15.2449 17 14.9916V11.0094C16.9997 10.7559 17.09 10.5074 17.2609 10.2917C17.4317 10.076 17.6763 9.90171 17.9672 9.78832L22.3107 8.09634C22.4885 8.02688 22.6862 7.99403 22.885 8.00089C23.0838 8.00776 23.277 8.05412 23.4462 8.13557C23.6155 8.21702 23.7553 8.33085 23.8522 8.46625C23.9491 8.60164 24 8.75411 24 8.90915V17.0918C23.9998 17.2467 23.9488 17.3991 23.8518 17.5343C23.7548 17.6696 23.615 17.7833 23.4457 17.8647C23.2765 17.946 23.0834 17.9923 22.8847 17.9991C22.686 18.0059 22.4884 17.9731 22.3107 17.9037Z"/>
</mask>
<path d="M17.9672 16.2117L17.2408 18.0751L17.2412 18.0753L17.9672 16.2117ZM22.3107 17.9037L23.0382 16.0407L23.0366 16.0401L22.3107 17.9037ZM22.8847 17.9991L22.816 16.0003H22.816L22.8847 17.9991ZM23.4457 17.8647L24.3121 19.6673L24.3121 19.6673L23.4457 17.8647ZM23.8518 17.5343L25.4771 18.6999L25.4771 18.6999L23.8518 17.5343ZM24 17.0918L26 17.0944V17.0918H24ZM24 8.90915H26L26 8.90906L24 8.90915ZM23.8522 8.46625L25.4785 7.30209L25.4784 7.30209L23.8522 8.46625ZM23.4462 8.13557L24.3134 6.33332L24.3134 6.33332L23.4462 8.13557ZM22.885 8.00089L22.816 9.9997H22.816L22.885 8.00089ZM22.3107 8.09634L23.0366 9.95994L23.0382 9.95933L22.3107 8.09634ZM17.9672 9.78832L17.2412 7.92473L17.2408 7.92488L17.9672 9.78832ZM17.2609 10.2917L18.8286 11.5335L18.8286 11.5335L17.2609 10.2917ZM17 11.0094H19L19 11.0069L17 11.0094ZM17 14.9916L19 14.9923V14.9916H17ZM17.2612 15.7087L15.6938 16.9511H15.6938L17.2612 15.7087ZM17.2412 18.0753L21.5847 19.7673L23.0366 16.0401L18.6931 14.3481L17.2412 18.0753ZM21.5832 19.7666C22.0248 19.9391 22.4944 20.0137 22.9534 19.9979L22.816 16.0003C22.8777 15.9982 22.952 16.007 23.0382 16.0407L21.5832 19.7666ZM22.9534 19.9979C23.4121 19.9822 23.8789 19.8755 24.3121 19.6673L22.5794 16.062C22.674 16.0166 22.7546 16.0024 22.816 16.0003L22.9534 19.9979ZM24.3121 19.6673C24.7444 19.4595 25.1606 19.1412 25.4771 18.6999L22.2265 16.3688C22.3489 16.198 22.4856 16.1071 22.5794 16.0621L24.3121 19.6673ZM25.4771 18.6999C25.7981 18.2521 25.9992 17.6981 26 17.0944L22 17.0891C22.0004 16.7953 22.0994 16.546 22.2265 16.3688L25.4771 18.6999ZM26 17.0918V8.90915H22V17.0918H26ZM26 8.90906C26 8.305 25.7994 7.75045 25.4785 7.30209L22.2259 9.6304C22.0988 9.45284 22 9.20321 22 8.90923L26 8.90906ZM25.4784 7.30209C25.1621 6.86018 24.7459 6.54142 24.3134 6.33332L22.5791 9.93781C22.4852 9.89262 22.3484 9.80152 22.2259 9.63041L25.4784 7.30209ZM24.3134 6.33332C23.8801 6.12484 23.4131 6.01794 22.954 6.00208L22.816 9.9997C22.7545 9.99758 22.6738 9.98339 22.5791 9.93781L24.3134 6.33332ZM22.954 6.00208C22.4948 5.98622 22.0251 6.06079 21.5832 6.23335L23.0382 9.95933C22.952 9.99298 22.8777 10.0018 22.816 9.9997L22.954 6.00208ZM21.5847 6.23275L17.2412 7.92473L18.6931 11.6519L23.0366 9.95994L21.5847 6.23275ZM17.2408 7.92488C16.6647 8.14945 16.1127 8.52014 15.6931 9.04988L18.8286 11.5335C18.7887 11.5839 18.7524 11.6142 18.7297 11.6304C18.7069 11.6466 18.6937 11.6517 18.6935 11.6518L17.2408 7.92488ZM15.6931 9.04988C15.2674 9.58731 14.9991 10.2671 15 11.0118L19 11.0069C19.0003 11.2446 18.9126 11.4274 18.8286 11.5335L15.6931 9.04988ZM15 11.0094V14.9916H19V11.0094H15ZM15 14.9908C14.9997 15.735 15.2683 16.4142 15.6938 16.9511L18.8285 14.4663C18.9124 14.5722 19.0001 14.7547 19 14.9923L15 14.9908ZM15.6938 16.9511C16.1134 17.4803 16.665 17.8507 17.2408 18.0751L18.6935 14.3482C18.6937 14.3483 18.7069 14.3534 18.7297 14.3696C18.7524 14.3858 18.7886 14.416 18.8285 14.4663L15.6938 16.9511Z" fill="black" mask="url(#path-2-inside-1_3_1266)"/>
</svg>
