<svg width="18" height="17" viewBox="0 0 18 17" fill="none" xmlns="http://www.w3.org/2000/svg">
<path d="M16.5854 2.2002L15.4482 1.05469L16.0542 0.457031C16.3281 0.191406 16.7349 0.158203 16.9922 0.415527L17.1831 0.614746C17.4653 0.888672 17.4653 1.28711 17.1831 1.58594L16.5854 2.2002ZM6.59961 11.2563C6.44189 11.3228 6.27588 11.1318 6.34229 10.9907L7.08936 9.43018L14.834 1.68555L15.9712 2.80615L8.21826 10.5508L6.59961 11.2563ZM3.57812 16.6353C1.85156 16.6353 0.97168 15.7803 0.97168 14.062V4.49951C0.97168 2.78955 1.85156 1.92627 3.57812 1.92627H12.5015L11.165 3.2627H3.60303C2.77295 3.2627 2.30811 3.71094 2.30811 4.57422V13.9956C2.30811 14.8589 2.77295 15.2988 3.60303 15.2988H13.3066C13.8794 15.2988 14.3442 14.8589 14.3442 13.9956V6.5249L15.6807 5.18848V14.062C15.6807 15.772 14.8174 16.6353 13.3232 16.6353H3.57812Z" fill="#3478F6"/>
</svg>
