<svg width="22" height="22" viewBox="0 0 22 22" fill="none" xmlns="http://www.w3.org/2000/svg">
<path d="M11 2.5H2C1.44772 2.5 1 2.94772 1 3.5V19.5C1 20.0523 1.44772 20.5 2 20.5H18C18.5523 20.5 19 20.0523 19 19.5V10.5" stroke="black" stroke-width="2" stroke-linecap="round"/>
<path d="M5 15.5V13.4262C5 13.1539 5.11104 12.8934 5.30747 12.7048L16.7368 1.73271C17.1511 1.3349 17.8147 1.36717 18.1885 1.80331L19.8973 3.7969C20.2374 4.19364 20.2147 4.78531 19.8452 5.1548L8.79289 16.2071C8.60536 16.3946 8.351 16.5 8.08579 16.5H6C5.44772 16.5 5 16.0523 5 15.5Z" stroke="black" stroke-width="2" stroke-linecap="round"/>
<path d="M15 3.5L18 6.5" stroke="black" stroke-width="2" stroke-linecap="round"/>
</svg>
