<svg xmlns="http://www.w3.org/2000/svg" width="4rem" height="4.1rem" viewBox="0 0 40 41" fill="none">
  <path d="M26.8828 18.75C24.625 18.75 24.3125 21 24.3125 21H29.1094C29.1094 21 29.1406 18.75 26.8828 18.75ZM16 21H11.75V24.9062H15.7891C16.3984 24.8906 17.5391 24.7188 17.5391 23.0078C17.5391 20.9766 16 21 16 21Z" fill="#333333"/>
  <path d="M20 3C10.3359 3 2.5 10.8359 2.5 20.5C2.5 30.1641 10.3359 38 20 38C29.6641 38 37.5 30.1641 37.5 20.5C37.5 10.8359 29.6641 3 20 3ZM23.6875 13.75H29.7109V15.5469H23.6875V13.75ZM20.6406 23.1875C20.6406 27.6406 16 27.5 16 27.5H8.40625V12.8906H16C18.3125 12.8906 20.1328 14.1641 20.1328 16.7812C20.1328 19.3984 17.9062 19.5625 17.9062 19.5625C20.8438 19.5625 20.6406 23.1875 20.6406 23.1875ZM31.9062 22.9453H24.3359C24.3359 25.6562 26.9062 25.4844 26.9062 25.4844C29.3359 25.4844 29.25 23.9141 29.25 23.9141H31.8203C31.8203 28.0859 26.8203 27.7969 26.8203 27.7969C20.8281 27.7969 21.2109 22.2109 21.2109 22.2109C21.2109 22.2109 21.2031 16.6016 26.8203 16.6016C32.7344 16.6094 31.9062 22.9453 31.9062 22.9453Z" fill="#333333"/>
  <path d="M17.0313 17.0078C17.0313 15.4922 16 15.4922 16 15.4922H11.75V18.75H15.7344C16.4219 18.75 17.0313 18.5234 17.0313 17.0078Z" fill="#333333"/>
</svg>