<svg xmlns="http://www.w3.org/2000/svg" width="4rem" height="4.1rem" viewBox="0 0 40 41" fill="none">
  <path d="M21.7134 3.83506C22.9296 3.83039 24.1458 3.84261 25.3617 3.87173L25.685 3.88339C26.0584 3.89673 26.4267 3.91339 26.8717 3.93339C28.645 4.01673 29.855 4.29673 30.9167 4.70839C32.0167 5.13173 32.9434 5.70506 33.87 6.63173C34.7173 7.4644 35.3731 8.47164 35.7917 9.58339C36.2034 10.6451 36.4834 11.8567 36.5667 13.6301C36.5867 14.0734 36.6034 14.4434 36.6167 14.8167L36.6267 15.1401C36.6563 16.3554 36.6691 17.5711 36.665 18.7867L36.6667 20.0301V22.2134C36.6708 23.4296 36.658 24.6459 36.6284 25.8617L36.6184 26.1851C36.605 26.5584 36.5884 26.9267 36.5684 27.3717C36.485 29.1451 36.2017 30.3551 35.7917 31.4167C35.3744 32.5297 34.7185 33.5377 33.87 34.3701C33.0366 35.2173 32.0289 35.873 30.9167 36.2917C29.855 36.7034 28.645 36.9834 26.8717 37.0667C26.4267 37.0867 26.0584 37.1034 25.685 37.1167L25.3617 37.1267C24.1458 37.1564 22.9296 37.1691 21.7134 37.1651L20.47 37.1667H18.2884C17.0721 37.1708 15.8559 37.1581 14.64 37.1284L14.3167 37.1184C13.921 37.1041 13.5255 37.0874 13.13 37.0684C11.3567 36.9851 10.1467 36.7017 9.08336 36.2917C7.97117 35.874 6.96376 35.2181 6.13169 34.3701C5.28343 33.5372 4.62707 32.5293 4.20836 31.4167C3.79669 30.3551 3.51669 29.1451 3.43336 27.3717C3.4148 26.9763 3.39813 26.5807 3.38336 26.1851L3.37503 25.8617C3.3443 24.6459 3.33041 23.4296 3.33336 22.2134V18.7867C3.32871 17.5711 3.34093 16.3554 3.37003 15.1401L3.38169 14.8167C3.39503 14.4434 3.41169 14.0734 3.43169 13.6301C3.51503 11.8551 3.79503 10.6467 4.20669 9.58339C4.62565 8.47109 5.2833 7.46413 6.13336 6.63339C6.96485 5.78465 7.97163 5.12768 9.08336 4.70839C10.1467 4.29673 11.355 4.01673 13.13 3.93339L14.3167 3.88339L14.64 3.87506C15.8553 3.84435 17.071 3.83046 18.2867 3.83339L21.7134 3.83506ZM20 12.1684C18.8959 12.1528 17.7996 12.3568 16.775 12.7685C15.7504 13.1802 14.8178 13.7915 14.0314 14.5668C13.2451 15.3421 12.6207 16.266 12.1945 17.2847C11.7683 18.3034 11.5488 19.3966 11.5488 20.5009C11.5488 21.6052 11.7683 22.6984 12.1945 23.7171C12.6207 24.7358 13.2451 25.6597 14.0314 26.435C14.8178 27.2103 15.7504 27.8215 16.775 28.2333C17.7996 28.645 18.8959 28.849 20 28.8334C22.2102 28.8334 24.3298 27.9554 25.8926 26.3926C27.4554 24.8298 28.3334 22.7102 28.3334 20.5001C28.3334 18.2899 27.4554 16.1703 25.8926 14.6075C24.3298 13.0447 22.2102 12.1684 20 12.1684ZM20 15.5017C20.6642 15.4895 21.3242 15.6097 21.9414 15.8554C22.5585 16.1011 23.1206 16.4673 23.5947 16.9326C24.0687 17.398 24.4453 17.9531 24.7024 18.5656C24.9595 19.1781 25.092 19.8358 25.0921 20.5C25.0922 21.1643 24.96 21.822 24.7031 22.4346C24.4462 23.0472 24.0698 23.6025 23.5958 24.068C23.1219 24.5335 22.56 24.8998 21.9429 25.1457C21.3258 25.3916 20.6659 25.5121 20.0017 25.5001C18.6756 25.5001 17.4038 24.9733 16.4662 24.0356C15.5285 23.0979 15.0017 21.8261 15.0017 20.5001C15.0017 19.174 15.5285 17.9022 16.4662 16.9645C17.4038 16.0268 18.6756 15.5001 20.0017 15.5001L20 15.5017ZM28.75 9.66839C28.2123 9.68991 27.7038 9.91864 27.331 10.3067C26.9582 10.6947 26.75 11.2119 26.75 11.7501C26.75 12.2882 26.9582 12.8054 27.331 13.1934C27.7038 13.5815 28.2123 13.8102 28.75 13.8317C29.3026 13.8317 29.8325 13.6122 30.2232 13.2215C30.6139 12.8308 30.8334 12.3009 30.8334 11.7484C30.8334 11.1959 30.6139 10.666 30.2232 10.2753C29.8325 9.88455 29.3026 9.66506 28.75 9.66506V9.66839Z" fill="#333333"/>
</svg>