<svg xmlns="http://www.w3.org/2000/svg" width="2.4rem" height="2.4rem" viewBox="0 0 24 24" fill="none">
  <path d="M20 6H4C2.89543 6 2 6.89543 2 8V18C2 19.1046 2.89543 20 4 20H20C21.1046 20 22 19.1046 22 18V8C22 6.89543 21.1046 6 20 6Z" stroke="#0047FF" stroke-linecap="round" stroke-linejoin="round"/>
  <path d="M16 20V4.88889C16 4.38792 15.7893 3.90748 15.4142 3.55324C15.0391 3.19901 14.5304 3 14 3H10C9.46957 3 8.96086 3.19901 8.58579 3.55324C8.21071 3.90748 8 4.38792 8 4.88889V20" stroke="#0047FF" stroke-linecap="round" stroke-linejoin="round"/>
</svg>