<svg xmlns="http://www.w3.org/2000/svg" width="1.8rem" height="1.3rem" fill="none"><path fill="#000" fill-rule="evenodd" d="M9.206 3.104c2.487 0 4.879.922 6.681 2.576a.355.355 0 0 0 .487-.004l1.297-1.263a.342.342 0 0 0-.003-.494C12.938-.456 5.473-.456.742 3.919a.342.342 0 0 0-.003.494l1.298 1.263c.133.13.35.132.486.004 1.803-1.654 4.195-2.576 6.683-2.576Zm-.004 4.22c1.357 0 2.666.512 3.672 1.436.137.131.351.128.484-.006l1.287-1.32a.368.368 0 0 0-.005-.519 7.9 7.9 0 0 0-10.873 0 .367.367 0 0 0-.005.52L5.05 8.753a.343.343 0 0 0 .484.006 5.427 5.427 0 0 1 3.67-1.436Zm2.525 2.794a.406.406 0 0 1-.103.28l-2.176 2.455a.323.323 0 0 1-.242.113.323.323 0 0 1-.242-.113L6.787 10.4a.407.407 0 0 1-.102-.281.403.403 0 0 1 .113-.276c1.39-1.314 3.426-1.314 4.816 0 .07.07.11.17.113.276Z" clip-rule="evenodd"/></svg>