<svg width="28" height="28" viewBox="0 0 28 28" fill="none" xmlns="http://www.w3.org/2000/svg">
<path d="M6.36642 15.0374L15.0945 6.30933C16.8186 4.58517 19.6152 4.31293 21.4961 5.86385C23.6575 7.64576 23.7648 10.8384 21.8344 12.7688L11.6379 22.9652C10.5572 24.0459 8.80004 24.2522 7.62035 23.287C6.25917 22.1733 6.18493 20.1686 7.39761 18.9559L16.0597 10.2939C16.5134 9.84015 17.2559 9.84015 17.7096 10.2939C18.1633 10.7476 18.1633 11.4901 17.7096 11.9438L10.4912 19.1622C10.153 19.5004 10.153 20.0614 10.4912 20.3996C10.8294 20.7378 11.3904 20.7378 11.7286 20.3996L18.8315 13.2967C19.9122 12.216 20.1185 10.4589 19.1533 9.27918C18.0396 7.918 16.0349 7.84375 14.8222 9.05644L6.30042 17.5783C4.57626 19.3024 4.30402 22.099 5.85494 23.9799C7.6286 26.1331 10.8294 26.2486 12.7598 24.3182L22.8821 14.1959C25.2497 11.8283 25.6374 7.97575 23.5008 5.39363C21.0342 2.43203 16.6536 2.27529 13.9973 4.93165L5.12898 13.8C4.79075 14.1382 4.79075 14.6992 5.12898 15.0374C5.46721 15.3756 6.02818 15.3756 6.36642 15.0374Z" fill="#A4A2B7"/>
</svg>
