<svg width="36" height="36" viewBox="0 0 36 36" fill="none" xmlns="http://www.w3.org/2000/svg">
<path fill-rule="evenodd" clip-rule="evenodd" d="M18 29C24.6274 29 30 23.8513 30 17.5C30 11.1487 24.6274 6 18 6C11.3726 6 6 11.1487 6 17.5C6 19.2106 6.44019 21.0085 7.32057 22.8935L7.51595 23.2988C8.17754 24.6297 8.21277 26.1859 7.61209 27.5453C7.05503 28.806 6.96023 29.5895 7.32767 29.8957C7.73008 30.231 8.8886 29.9695 10.8032 29.1111L11.3198 28.8736C12.3094 28.4082 13.4217 28.2812 14.4865 28.5073L14.7516 28.5712C15.8097 28.8571 16.8925 29 18 29Z" fill="#1263DC"/>
</svg>
