<svg width="36" height="36" viewBox="0 0 36 36" fill="none" xmlns="http://www.w3.org/2000/svg">
<path d="M10.3664 19.0374L19.0945 10.3093C20.8186 8.58517 23.6152 8.31293 25.4961 9.86385C27.6575 11.6458 27.7648 14.8384 25.8344 16.7688L15.6379 26.9652C14.5572 28.0459 12.8 28.2522 11.6204 27.287C10.2592 26.1733 10.1849 24.1686 11.3976 22.9559L20.0597 14.2939C20.5134 13.8402 21.2559 13.8402 21.7096 14.2939C22.1633 14.7476 22.1633 15.4901 21.7096 15.9438L14.4912 23.1622C14.153 23.5004 14.153 24.0614 14.4912 24.3996C14.8294 24.7378 15.3904 24.7378 15.7286 24.3996L22.8315 17.2967C23.9122 16.216 24.1185 14.4589 23.1533 13.2792C22.0396 11.918 20.0349 11.8438 18.8222 13.0564L10.3004 21.5783C8.57626 23.3024 8.30402 26.099 9.85494 27.9799C11.6286 30.1331 14.8294 30.2486 16.7598 28.3182L26.8821 18.1959C29.2497 15.8283 29.6374 11.9757 27.5008 9.39363C25.0342 6.43203 20.6536 6.27529 17.9973 8.93165L9.12898 17.8C8.79075 18.1382 8.79075 18.6992 9.12898 19.0374C9.46721 19.3756 10.0282 19.3756 10.3664 19.0374Z" fill="#A4A2B7"/>
</svg>
