<svg width="32" height="32" viewBox="0 0 32 32" fill="none" xmlns="http://www.w3.org/2000/svg">
<path d="M19.5 15C20.3284 15 21 14.3284 21 13.5C21 12.6716 20.3284 12 19.5 12C18.6716 12 18 12.6716 18 13.5C18 14.3284 18.6716 15 19.5 15Z" fill="#A4A2B7"/>
<path d="M12.5 15C13.3284 15 14 14.3284 14 13.5C14 12.6716 13.3284 12 12.5 12C11.6716 12 11 12.6716 11 13.5C11 14.3284 11.6716 15 12.5 15Z" fill="#A4A2B7"/>
<path d="M15.99 6C10.47 6 6 10.48 6 16C6 21.52 10.47 26 15.99 26C21.52 26 26 21.52 26 16C26 10.48 21.52 6 15.99 6ZM16 24C11.58 24 8 20.42 8 16C8 11.58 11.58 8 16 8C20.42 8 24 11.58 24 16C24 20.42 20.42 24 16 24ZM20.41 17.89C20.06 17.67 19.59 17.78 19.38 18.13C18.64 19.3 17.38 20 16 20C14.62 20 13.36 19.3 12.62 18.12C12.4 17.77 11.94 17.66 11.59 17.88C11.24 18.1 11.13 18.56 11.35 18.91C12.37 20.54 14.1 21.5 16 21.5C17.9 21.5 19.63 20.53 20.65 18.92C20.87 18.57 20.76 18.11 20.41 17.89Z" fill="#A4A2B7"/>
</svg>
