<svg width="284" height="112" viewBox="0 0 284 112" fill="none" xmlns="http://www.w3.org/2000/svg">
<rect x="20" y="52" width="40" height="40" rx="16" fill="#B8B7CA"/>
<path d="M40.0013 71.9974C42.5796 71.9974 44.668 69.9091 44.668 67.3307C44.668 64.7524 42.5796 62.6641 40.0013 62.6641C37.423 62.6641 35.3346 64.7524 35.3346 67.3307C35.3346 69.9091 37.423 71.9974 40.0013 71.9974ZM40.0013 74.3307C36.8863 74.3307 30.668 75.8941 30.668 78.9974V80.1641C30.668 80.8057 31.193 81.3307 31.8346 81.3307H48.168C48.8096 81.3307 49.3346 80.8057 49.3346 80.1641V78.9974C49.3346 75.8941 43.1163 74.3307 40.0013 74.3307Z" fill="white"/>
<rect x="100" y="40" width="52" height="52" rx="20" fill="#B8B7CA"/>
<path d="M126.003 65.9931C129.548 65.9931 132.419 63.1217 132.419 59.5764C132.419 56.0312 129.548 53.1598 126.003 53.1598C122.457 53.1598 119.586 56.0312 119.586 59.5764C119.586 63.1217 122.457 65.9931 126.003 65.9931ZM126.003 69.2014C121.719 69.2014 113.169 71.351 113.169 75.6181V77.2223C113.169 78.1046 113.891 78.8264 114.773 78.8264H137.232C138.114 78.8264 138.836 78.1046 138.836 77.2223V75.6181C138.836 71.351 130.286 69.2014 126.003 69.2014Z" fill="white"/>
<rect x="192" y="20" width="72" height="72" rx="28" fill="#B8B7CA"/>
<path d="M228 55.996C232.512 55.996 236.166 52.3414 236.166 47.8293C236.166 43.3172 232.512 39.6627 228 39.6627C223.488 39.6627 219.833 43.3172 219.833 47.8293C219.833 52.3414 223.488 55.996 228 55.996ZM228 60.0793C222.548 60.0793 211.666 62.8152 211.666 68.246V70.2877C211.666 71.4106 212.585 72.3293 213.708 72.3293H242.291C243.414 72.3293 244.333 71.4106 244.333 70.2877V68.246C244.333 62.8152 233.451 60.0793 228 60.0793Z" fill="white"/>
<rect x="0.5" y="0.5" width="283" height="111" rx="4.5" stroke="#9747FF" stroke-dasharray="10 5"/>
</svg>
