<svg width="40" height="40" viewBox="0 0 40 40" fill="none" xmlns="http://www.w3.org/2000/svg">
  <rect width="40" height="40" rx="16" fill="#B8B7CA"/>
  <path d="M20.0013 19.9974C22.5796 19.9974 24.668 17.9091 24.668 15.3307C24.668 12.7524 22.5796 10.6641 20.0013 10.6641C17.423 10.6641 15.3346 12.7524 15.3346 15.3307C15.3346 17.9091 17.423 19.9974 20.0013 19.9974ZM20.0013 22.3307C16.8863 22.3307 10.668 23.8941 10.668 26.9974V28.1641C10.668 28.8057 11.193 29.3307 11.8346 29.3307H28.168C28.8096 29.3307 29.3346 28.8057 29.3346 28.1641V26.9974C29.3346 23.8941 23.1163 22.3307 20.0013 22.3307Z" fill="white"/>
</svg>