<svg width="375" height="54" viewBox="0 0 375 54" fill="none" xmlns="http://www.w3.org/2000/svg">
<rect x="-0.165" y="0.835" width="375.33" height="52.33" fill="white"/>
<path d="M300.015 32.0018C300.505 31.5118 300.505 30.7218 300.015 30.2318L291.705 21.9218C291.315 21.5318 290.685 21.5318 290.295 21.9218L281.985 30.2318C281.495 30.7218 281.495 31.5118 281.985 32.0018C282.475 32.4918 283.265 32.4918 283.755 32.0018L291.005 24.7618L298.255 32.0118C298.735 32.4918 299.535 32.4918 300.015 32.0018Z" fill="#A4A2B7"/>
<path d="M333.985 21.9982C333.495 22.4882 333.495 23.2782 333.985 23.7682L342.295 32.0782C342.685 32.4682 343.315 32.4682 343.705 32.0782L352.015 23.7682C352.505 23.2782 352.505 22.4882 352.015 21.9982C351.525 21.5082 350.735 21.5082 350.245 21.9982L342.995 29.2382L335.745 21.9882C335.265 21.5082 334.465 21.5082 333.985 21.9982Z" fill="#A4A2B7"/>
<rect x="-0.165" y="0.835" width="375.33" height="52.33" stroke="#B8B7CA" stroke-width="0.33"/>
</svg>
