<svg width="76" height="132" viewBox="0 0 76 132" fill="none" xmlns="http://www.w3.org/2000/svg">
<path d="M42.6392 40.8835H41.7176L41.3909 40.5685C42.7909 38.9352 43.5142 36.7068 43.1176 34.3385C42.5692 31.0952 39.8626 28.5052 36.5959 28.1085C31.6609 27.5018 27.5076 31.6552 28.1142 36.5902C28.5109 39.8568 31.1009 42.5635 34.3442 43.1118C36.7126 43.5085 38.9409 42.7852 40.5742 41.3852L40.8892 41.7118V42.6335L45.8476 47.5918C46.3259 48.0702 47.1076 48.0702 47.5859 47.5918C48.0642 47.1135 48.0642 46.3318 47.5859 45.8535L42.6392 40.8835ZM35.6392 40.8835C32.7342 40.8835 30.3892 38.5385 30.3892 35.6335C30.3892 32.7285 32.7342 30.3835 35.6392 30.3835C38.5442 30.3835 40.8892 32.7285 40.8892 35.6335C40.8892 38.5385 38.5442 40.8835 35.6392 40.8835Z" fill="#33333A"/>
<path d="M42.6392 96.8835H41.7176L41.3909 96.5685C42.7909 94.9352 43.5142 92.7068 43.1176 90.3385C42.5692 87.0952 39.8626 84.5052 36.5959 84.1085C31.6609 83.5018 27.5076 87.6552 28.1142 92.5902C28.5109 95.8568 31.1009 98.5635 34.3442 99.1118C36.7126 99.5085 38.9409 98.7852 40.5742 97.3852L40.8892 97.7118V98.6335L45.8476 103.592C46.3259 104.07 47.1076 104.07 47.5859 103.592C48.0642 103.114 48.0642 102.332 47.5859 101.854L42.6392 96.8835ZM35.6392 96.8835C32.7342 96.8835 30.3892 94.5385 30.3892 91.6335C30.3892 88.7285 32.7342 86.3835 35.6392 86.3835C38.5442 86.3835 40.8892 88.7285 40.8892 91.6335C40.8892 94.5385 38.5442 96.8835 35.6392 96.8835Z" fill="#1263DC"/>
<rect x="0.5" y="0.5" width="75" height="131" rx="4.5" stroke="#9747FF" stroke-dasharray="10 5"/>
</svg>
