<svg width="28" height="28" viewBox="0 0 28 28" fill="none" xmlns="http://www.w3.org/2000/svg">
<path d="M18.6392 16.8835H17.7176L17.3909 16.5685C18.7909 14.9352 19.5142 12.7068 19.1176 10.3385C18.5692 7.09515 15.8626 4.50515 12.5959 4.10849C7.66091 3.50182 3.50757 7.65515 4.11424 12.5902C4.51091 15.8568 7.10091 18.5635 10.3442 19.1118C12.7126 19.5085 14.9409 18.7852 16.5742 17.3852L16.8892 17.7118V18.6335L21.8476 23.5918C22.3259 24.0702 23.1076 24.0702 23.5859 23.5918C24.0642 23.1135 24.0642 22.3318 23.5859 21.8535L18.6392 16.8835ZM11.6392 16.8835C8.73424 16.8835 6.38924 14.5385 6.38924 11.6335C6.38924 8.72849 8.73424 6.38349 11.6392 6.38349C14.5442 6.38349 16.8892 8.72849 16.8892 11.6335C16.8892 14.5385 14.5442 16.8835 11.6392 16.8835Z" fill="#33333A"/>
</svg>
