<svg width="76" height="132" viewBox="0 0 76 132" fill="none" xmlns="http://www.w3.org/2000/svg">
<path d="M48.8846 29.5149C49.4243 28.0218 47.9775 26.5749 46.4844 27.1159L28.2367 33.7157C26.7386 34.258 26.5575 36.3021 27.9356 37.1005L33.7604 40.4729L38.9617 35.2713C39.1973 35.0437 39.5129 34.9178 39.8405 34.9206C40.1681 34.9234 40.4815 35.0549 40.7132 35.2865C40.9448 35.5182 41.0762 35.8316 41.0791 36.1592C41.0819 36.4868 40.956 36.8024 40.7284 37.0381L35.527 42.2397L38.9005 48.0648C39.6976 49.443 41.7417 49.2606 42.2839 47.7637L48.8846 29.5149Z" fill="#A4A2B7"/>
<path d="M48.8846 85.5149C49.4243 84.0218 47.9775 82.5749 46.4844 83.1159L28.2367 89.7157C26.7386 90.258 26.5575 92.3021 27.9356 93.1005L33.7604 96.4729L38.9617 91.2713C39.1973 91.0437 39.5129 90.9178 39.8405 90.9206C40.1681 90.9234 40.4815 91.0549 40.7132 91.2865C40.9448 91.5182 41.0762 91.8316 41.0791 92.1592C41.0819 92.4868 40.956 92.8024 40.7284 93.0381L35.527 98.2397L38.9005 104.065C39.6976 105.443 41.7417 105.261 42.2839 103.764L48.8846 85.5149Z" fill="#1263DC"/>
<rect x="0.5" y="0.5" width="75" height="131" rx="4.5" stroke="#9747FF" stroke-dasharray="10 5"/>
</svg>
