<svg width="28" height="28" viewBox="0 0 28 28" fill="none" xmlns="http://www.w3.org/2000/svg">
<path fill-rule="evenodd" clip-rule="evenodd" d="M13.67 11.99C13.6891 12.6469 13.2866 13.2426 12.67 13.47C13.4732 13.687 14.0126 14.4396 13.96 15.27C13.96 17.27 11.77 17.33 11.45 17.33H8.02V10.23H11.4C13.59 10.23 13.67 11.45 13.67 11.99ZM11.05 11.47H9.58V13.13H11.17C11.4113 13.159 11.6533 13.082 11.8335 12.919C12.0138 12.756 12.1146 12.523 12.11 12.28C12.11 11.4421 11.2857 11.464 11.0807 11.4694C11.068 11.4697 11.0576 11.47 11.05 11.47ZM11.25 16.15H9.58V14.15H11.27C11.5569 14.1124 11.846 14.2009 12.0627 14.3926C12.2794 14.5844 12.4025 14.8606 12.4 15.15C12.4 16.12 11.4 16.12 11.25 16.12V16.15Z" fill="black"/>
<path d="M18.5 10.89H15.85V11.54H18.5V10.89Z" fill="black"/>
<path fill-rule="evenodd" clip-rule="evenodd" d="M15.457 12.8259C15.9254 12.3499 16.5728 12.0936 17.24 12.12C19.04 12.12 19.6 13.64 19.56 14.93H16.15C16.1065 15.2543 16.2123 15.5808 16.4377 15.8179C16.6632 16.055 16.9839 16.1771 17.31 16.15C17.7374 16.1521 18.1274 15.9065 18.31 15.52H19.42C19.173 16.5259 18.2324 17.2039 17.2 17.12C16.535 17.1508 15.8889 16.8944 15.4259 16.4161C14.9629 15.9378 14.7276 15.2836 14.78 14.62C14.7428 13.9533 14.9887 13.3018 15.457 12.8259ZM16.19 13.8C16.1526 13.9027 16.1324 14.0108 16.13 14.12H18.24C18.2243 13.841 18.1191 13.5745 17.94 13.36C17.7415 13.1787 17.4784 13.085 17.21 13.1C17.0312 13.0924 16.8532 13.1267 16.69 13.2C16.5583 13.264 16.4422 13.3562 16.35 13.47C16.2751 13.5681 16.2206 13.6804 16.19 13.8Z" fill="black"/>
<path fill-rule="evenodd" clip-rule="evenodd" d="M19.56 4H8C5.79086 4 4 5.79086 4 8V19.56C4 21.7691 5.79086 23.56 8 23.56H19.56C21.7691 23.56 23.56 21.7691 23.56 19.56V8C23.56 5.79086 21.7691 4 19.56 4ZM22.06 19.56C22.06 20.9407 20.9407 22.06 19.56 22.06H8C6.61929 22.06 5.5 20.9407 5.5 19.56V8C5.5 6.61929 6.61929 5.5 8 5.5H19.56C20.9407 5.5 22.06 6.61929 22.06 8V19.56Z" fill="black"/>
</svg>
