<svg width="32" height="32" viewBox="0 0 32 32" fill="none" xmlns="http://www.w3.org/2000/svg">
<path fill-rule="evenodd" clip-rule="evenodd" d="M7.23492 7.94461C8.49354 6.62103 8.93835 6.2498 9.47469 6.07703C9.84587 5.97994 10.2352 5.97455 10.6089 6.06133C11.1009 6.20411 11.231 6.31262 12.8444 7.91748C14.2617 9.32673 14.4033 9.47951 14.5392 9.75507C14.799 10.2388 14.8396 10.8102 14.6508 11.3257C14.5077 11.7183 14.3047 11.9782 13.4451 12.8391L12.8844 13.4003C12.7372 13.5496 12.7026 13.7765 12.7986 13.9628C14.0443 16.0844 15.8115 17.8535 17.9332 19.1029C18.1774 19.2335 18.4782 19.1913 18.6769 18.9987L19.2161 18.469C19.5494 18.128 19.9023 17.8066 20.2731 17.5067C20.8554 17.1497 21.581 17.1179 22.1925 17.4224C22.4914 17.5652 22.5901 17.6537 24.0518 19.1101C25.5593 20.6107 25.6022 20.6578 25.7681 21.0019C26.0803 21.5716 26.0771 22.2614 25.7595 22.8281C25.5979 23.1479 25.4992 23.2636 24.6511 24.1288C24.1391 24.6514 23.6571 25.1283 23.5798 25.1983C22.8802 25.7766 21.9825 26.0603 21.0769 25.9893C19.42 25.8385 17.8163 25.3273 16.3785 24.4915C13.1935 22.807 10.4822 20.3525 8.49211 17.3525C8.05867 16.7246 7.67331 16.065 7.33933 15.3792C6.4434 13.8463 5.98073 12.0994 6.00061 10.3248C6.06901 9.39635 6.51501 8.53632 7.23492 7.94461Z" stroke="black" stroke-width="2.16" stroke-linecap="round" stroke-linejoin="round"/>
</svg>
