<svg width="28" height="28" viewBox="0 0 28 28" fill="none" xmlns="http://www.w3.org/2000/svg">
<path fill-rule="evenodd" clip-rule="evenodd" d="M8.27368 6.00001H19.7263C20.8588 5.99718 21.9459 6.45107 22.7476 7.26153C23.5494 8.072 24 9.17242 24 10.32V17.68C24 18.8276 23.5494 19.928 22.7476 20.7385C21.9459 21.5489 20.8588 22.0028 19.7263 22H8.27368C7.1412 22.0028 6.05414 21.5489 5.25237 20.7385C4.45059 19.928 4 18.8276 4 17.68V10.32C4 9.17242 4.45059 8.072 5.25237 7.26153C6.05414 6.45107 7.1412 5.99718 8.27368 6.00001ZM19.7263 20.4C21.1903 20.4004 22.3867 19.2164 22.4211 17.7333V10.32C22.4153 8.81607 21.2105 7.6 19.7263 7.60001H8.27368C6.78952 7.6 5.58474 8.81607 5.57895 10.32V17.68C5.58474 19.1839 6.78952 20.4 8.27368 20.4H19.7263Z" fill="black"/>
<path fill-rule="evenodd" clip-rule="evenodd" d="M9.71579 14.2987C9.71579 11.9423 11.6009 10.032 13.9263 10.032C16.2517 10.032 18.1368 11.9423 18.1368 14.2987C18.1368 16.6551 16.2517 18.5653 13.9263 18.5653C11.6009 18.5653 9.71579 16.6551 9.71579 14.2987ZM11.2947 14.2987C11.2947 15.7714 12.4729 16.9653 13.9263 16.9653C15.3797 16.9653 16.5579 15.7714 16.5579 14.2987C16.5579 12.8259 15.3797 11.632 13.9263 11.632C12.4729 11.632 11.2947 12.8259 11.2947 14.2987Z" fill="black"/>
<path d="M18.1368 9.46135C18.1368 9.18153 18.3607 8.95469 18.6368 8.95469H19.7421C20.0182 8.95469 20.2421 9.18153 20.2421 9.46135V10.592C20.2421 10.8718 20.0182 11.0987 19.7421 11.0987H18.6368C18.3607 11.0987 18.1368 10.8718 18.1368 10.592V9.46135Z" fill="black"/>
</svg>
