<svg width="32" height="32" viewBox="0 0 32 32" fill="none" xmlns="http://www.w3.org/2000/svg">
<path fill-rule="evenodd" clip-rule="evenodd" d="M10.0624 4.00129H22.0089C25.2415 3.97345 27.9031 6.58384 28 9.87699V18.6966C27.9031 21.9945 25.2342 24.6068 21.997 24.5723H20.1426C19.6807 24.5738 19.244 24.7874 18.9539 25.1538L17.1947 27.4314C16.9011 27.7916 16.4654 28 16.0059 28C15.5465 28 15.1108 27.7916 14.8172 27.4314L13.0461 25.1538C12.756 24.7874 12.3193 24.5738 11.8574 24.5723H10.0624C6.80225 24.6402 4.09714 22.0184 4 18.6966V9.87699C4.09714 6.55514 6.80225 3.93335 10.0624 4.00129ZM11.5483 16.6977C12.0407 16.6977 12.4398 16.2908 12.4398 15.789V12.8815C12.4398 12.3797 12.0407 11.9729 11.5483 11.9729C11.0559 11.9729 10.6568 12.3797 10.6568 12.8815V15.789C10.6568 16.2908 11.0559 16.6977 11.5483 16.6977ZM16.8975 15.789C16.8975 16.2908 16.4983 16.6977 16.0059 16.6977C15.5136 16.6977 15.1144 16.2908 15.1144 15.789V12.8815C15.1144 12.3797 15.5136 11.9729 16.0059 11.9729C16.4983 11.9729 16.8975 12.3797 16.8975 12.8815V15.789ZM20.4636 16.6977C20.956 16.6977 21.3551 16.2908 21.3551 15.789V12.8815C21.3551 12.3797 20.956 11.9729 20.4636 11.9729C19.9712 11.9729 19.5721 12.3797 19.5721 12.8815V15.789C19.5721 16.2908 19.9712 16.6977 20.4636 16.6977Z" fill="black"/>
</svg>
