<svg width="32" height="32" viewBox="0 0 32 32" fill="none" xmlns="http://www.w3.org/2000/svg">
<path fill-rule="evenodd" clip-rule="evenodd" d="M9.98003 4.00259H21.9629C23.5285 3.9556 25.0474 4.55024 26.1814 5.65405C27.3154 6.75786 27.9702 8.27916 28 9.87908V18.7288C27.9067 22.0178 25.24 24.6175 22.02 24.5587H20.1712C19.7065 24.5599 19.2668 24.7738 18.9729 25.1417L17.2268 27.4153C16.9343 27.7851 16.4939 28 16.0285 28C15.5632 28 15.1227 27.7851 14.8302 27.4153L13.0271 25.095C12.7332 24.7272 12.2935 24.5133 11.8288 24.512H9.98003C6.75998 24.5709 4.09329 21.9712 4 18.6822V9.83245C4.08716 6.54065 6.75754 3.93732 9.98003 4.00259ZM21.9743 22.8097C24.2665 22.8685 26.1741 21.0237 26.2425 18.6822V9.87908C26.1742 7.53289 24.2594 5.6862 21.9629 5.75154H9.98003C7.6835 5.6862 5.76877 7.53289 5.70043 9.87908V18.6822C5.76877 21.0284 7.6835 22.8751 9.98003 22.8097H11.8288C12.8184 22.8099 13.7544 23.2688 14.3738 24.0573L15.9715 26.1327L17.5692 24.0573C18.1885 23.2688 19.1246 22.8099 20.1141 22.8097H21.9743Z" fill="black"/>
<path d="M11.6919 12.1178C11.2192 12.1178 10.8359 12.5093 10.8359 12.9922V15.7906C10.8359 16.2735 11.2192 16.665 11.6919 16.665C12.1646 16.665 12.5478 16.2735 12.5478 15.7906V12.9922C12.5478 12.5093 12.1646 12.1178 11.6919 12.1178Z" fill="black"/>
<path d="M15.9715 12.1178C15.4988 12.1178 15.1155 12.5093 15.1155 12.9922V15.7906C15.1155 16.2735 15.4988 16.665 15.9715 16.665C16.4442 16.665 16.8274 16.2735 16.8274 15.7906V12.9922C16.8274 12.5093 16.4442 12.1178 15.9715 12.1178Z" fill="black"/>
<path d="M20.2511 12.1178C19.7784 12.1178 19.3951 12.5093 19.3951 12.9922V15.7906C19.3951 16.2735 19.7784 16.665 20.2511 16.665C20.7238 16.665 21.107 16.2735 21.107 15.7906V12.9922C21.107 12.5093 20.7238 12.1178 20.2511 12.1178Z" fill="black"/>
</svg>
