<svg width="32" height="32" viewBox="0 0 32 32" fill="none" xmlns="http://www.w3.org/2000/svg">
<path d="M17.1665 16.008L24.762 8.43822C25.0793 8.11791 25.0793 7.599 24.762 7.27868C24.4503 6.95264 23.9355 6.94285 23.6118 7.2568L16.0163 14.8266L8.51839 7.2568C8.36467 7.09288 8.15078 7 7.92702 7C7.70327 7 7.48938 7.09288 7.33566 7.2568C7.0543 7.56628 7.0543 8.04123 7.33566 8.35071L14.8335 15.9096L7.238 23.4685C6.92067 23.7888 6.92067 24.3077 7.238 24.628C7.38907 24.784 7.59685 24.871 7.81309 24.8687C8.03351 24.8867 8.25202 24.8159 8.42074 24.6718L16.0163 17.102L23.6118 24.7593C23.7629 24.9153 23.9707 25.0022 24.1869 25C24.4029 25.001 24.6102 24.9142 24.762 24.7593C25.0793 24.439 25.0793 23.9201 24.762 23.5998L17.1665 16.008Z" fill="black"/>
</svg>
