<svg width="28" height="28" viewBox="0 0 28 28" fill="none" xmlns="http://www.w3.org/2000/svg">
<path fill-rule="evenodd" clip-rule="evenodd" d="M14.0083 4C8.47396 4 4 8.58331 4 14.2535C4 18.786 6.86662 22.6226 10.8434 23.9805C11.3406 24.0826 11.5227 23.7599 11.5227 23.4885C11.5227 23.2508 11.5063 22.436 11.5063 21.587C8.72225 22.1983 8.14249 20.3647 8.14249 20.3647C7.69508 19.1764 7.03215 18.871 7.03215 18.871C6.12092 18.2429 7.09852 18.2429 7.09852 18.2429C8.1093 18.3108 8.63969 19.2954 8.63969 19.2954C9.53432 20.857 10.9759 20.4158 11.5559 20.1441C11.6386 19.482 11.9039 19.0237 12.1856 18.7691C9.96514 18.5314 7.62891 17.6487 7.62891 13.7102C7.62891 12.5898 8.02634 11.6731 8.65608 10.9602C8.55672 10.7056 8.20866 9.65289 8.75564 8.24394C8.75564 8.24394 9.60069 7.97228 11.5061 9.29644C12.3219 9.07199 13.1632 8.95782 14.0083 8.95685C14.8533 8.95685 15.7148 9.07581 16.5102 9.29644C18.4159 7.97228 19.2609 8.24394 19.2609 8.24394C19.8079 9.65289 19.4596 10.7056 19.3603 10.9602C20.0066 11.6731 20.3876 12.5898 20.3876 13.7102C20.3876 17.6487 18.0514 18.5143 15.8143 18.7691C16.179 19.0916 16.4936 19.7026 16.4936 20.6703C16.4936 22.0453 16.4773 23.1489 16.4773 23.4883C16.4773 23.7599 16.6596 24.0826 17.1566 23.9808C21.1333 22.6224 24 18.786 24 14.2535C24.0163 8.58331 19.526 4 14.0083 4Z" fill="#24292F"/>
</svg>
