<svg width="32" height="32" viewBox="0 0 32 32" fill="none" xmlns="http://www.w3.org/2000/svg">
<path fill-rule="evenodd" clip-rule="evenodd" d="M19.276 5.06858L25.948 10.0006C27.228 10.9309 27.9897 12.4142 28 13.9966V22.9246C27.928 25.7965 25.544 28.0677 22.672 28.0006H9.328C6.45598 28.0677 4.07203 25.7965 4 22.9246V14.0086C4.00732 12.4194 4.77453 10.9295 6.064 10.0006L12.724 5.06858C14.6756 3.64381 17.3244 3.64381 19.276 5.06858ZM22.672 26.2006C24.5501 26.2681 26.1284 24.8025 26.2 22.9246V13.9966C26.1938 12.983 25.6975 12.0351 24.868 11.4526L18.208 6.52058C16.8927 5.56007 15.1073 5.56007 13.792 6.52058L7.132 11.4406C6.30181 12.0334 5.8064 12.9885 5.8 14.0086V22.9246C5.87803 24.7996 7.45237 26.2615 9.328 26.2006H22.672Z" fill="black"/>
<path d="M21.4 20.5006H10.6C10.103 20.5006 9.70001 20.9036 9.70001 21.4006C9.70001 21.8977 10.103 22.3006 10.6 22.3006H21.4C21.8971 22.3006 22.3 21.8977 22.3 21.4006C22.3 20.9036 21.8971 20.5006 21.4 20.5006Z" fill="black"/>
</svg>
