<svg width="32" height="32" viewBox="0 0 32 32" fill="none" xmlns="http://www.w3.org/2000/svg">
<path fill-rule="evenodd" clip-rule="evenodd" d="M19.2716 5.07211L25.9411 10.0039C27.2264 10.9351 27.9912 12.4241 28 14.0125V22.9402C27.9174 25.8029 25.5422 28.0621 22.6821 27.9984H9.33053C6.4656 28.0692 4.0826 25.808 4 22.9402V14.0125C4.00879 12.4241 4.77358 10.9351 6.05895 10.0039L12.7284 5.07211C14.6758 3.64263 17.3242 3.64263 19.2716 5.07211ZM10.3158 22.6493H21.6843C22.2075 22.6493 22.6316 22.2247 22.6316 21.7009C22.6316 21.1771 22.2075 20.7525 21.6843 20.7525H10.3158C9.79262 20.7525 9.36847 21.1771 9.36847 21.7009C9.36847 22.2247 9.79262 22.6493 10.3158 22.6493Z" fill="black"/>
</svg>
