<svg width="28" height="28" viewBox="0 0 28 28" fill="none" xmlns="http://www.w3.org/2000/svg">
<path fill-rule="evenodd" clip-rule="evenodd" d="M10 4H17.7C21.0137 4 23.7 6.68629 23.7 10V17.7C23.7 21.0137 21.0137 23.7 17.7 23.7H10C6.68629 23.7 4 21.0137 4 17.7V10C4 6.68629 6.68629 4 10 4ZM22.2 10C22.1945 7.517 20.183 5.5055 17.7 5.5H10C7.517 5.5055 5.5055 7.517 5.5 10V17.7C5.5055 20.183 7.517 22.1945 10 22.2H17.7C20.183 22.1945 22.1945 20.183 22.2 17.7V10Z" fill="black"/>
<path fill-rule="evenodd" clip-rule="evenodd" d="M9.55 13.85C9.5555 11.4775 11.4775 9.5555 13.85 9.55C16.2225 9.5555 18.1445 11.4775 18.15 13.85C18.15 16.2248 16.2248 18.15 13.85 18.15C11.4752 18.15 9.55 16.2248 9.55 13.85ZM16.65 13.85C16.65 12.3036 15.3964 11.05 13.85 11.05C12.3059 11.0555 11.0555 12.3059 11.05 13.85C11.05 15.3964 12.3036 16.65 13.85 16.65C15.3964 16.65 16.65 15.3964 16.65 13.85Z" fill="black"/>
<path d="M17.51 8.505C17.51 7.90577 17.9958 7.42 18.595 7.42C19.1942 7.42 19.68 7.90577 19.68 8.505C19.68 9.10423 19.1942 9.59 18.595 9.59C17.9958 9.59 17.51 9.10423 17.51 8.505Z" fill="black"/>
</svg>
