<svg width="28" height="28" viewBox="0 0 28 28" fill="none" xmlns="http://www.w3.org/2000/svg">
<path d="M21.999 13.2857C21.999 12.8912 21.6594 12.5714 21.2405 12.5714C20.8216 12.5714 20.482 12.8912 20.482 13.2857C20.5118 14.9317 19.8452 16.5213 18.6291 17.704C17.4131 18.8867 15.7475 19.5654 13.9996 19.5905C12.2516 19.5654 10.5861 18.8867 9.37002 17.704C8.15398 16.5213 7.48735 14.9317 7.51709 13.2857C7.51709 12.8912 7.1775 12.5714 6.75861 12.5714C6.33971 12.5714 6.00013 12.8912 6.00013 13.2857C5.97716 17.2 9.10752 20.4938 13.2411 20.9048V23.2857C13.2411 23.6802 13.5807 24 13.9996 24C14.4185 24 14.758 23.6802 14.758 23.2857V20.981C18.9228 20.5673 22.064 17.2291 21.999 13.2857Z" fill="black"/>
<path fill-rule="evenodd" clip-rule="evenodd" d="M19.147 13.5238C19.147 16.1537 16.8831 18.2857 14.0905 18.2857C11.2978 18.2857 9.03392 16.1537 9.03392 13.5238V8.7619C9.03392 6.13198 11.2978 4 14.0905 4C16.8831 4 19.147 6.13198 19.147 8.7619V13.5238ZM14.0905 5.42857C12.1356 5.42857 10.5509 6.92096 10.5509 8.7619V13.5238C10.5509 15.3648 12.1356 16.8571 14.0905 16.8571C16.0453 16.8571 17.63 15.3648 17.63 13.5238V8.7619C17.63 6.92096 16.0453 5.42857 14.0905 5.42857Z" fill="black"/>
</svg>
