<svg width="32" height="32" viewBox="0 0 32 32" fill="none" xmlns="http://www.w3.org/2000/svg">
<path d="M13.75 9.5H17.75C18.1642 9.5 18.5 9.16421 18.5 8.75C18.5 8.33579 18.1642 8 17.75 8H13.75C13.3358 8 13 8.33579 13 8.75C13 9.16421 13.3358 9.5 13.75 9.5Z" fill="black"/>
<path d="M17.75 15H13.75C13.3358 15 13 15.3358 13 15.75C13 16.1642 13.3358 16.5 13.75 16.5H17.75C18.1642 16.5 18.5 16.1642 18.5 15.75C18.5 15.3358 18.1642 15 17.75 15Z" fill="black"/>
<path d="M17.75 22H13.75C13.3358 22 13 22.3358 13 22.75C13 23.1642 13.3358 23.5 13.75 23.5H17.75C18.1642 23.5 18.5 23.1642 18.5 22.75C18.5 22.3358 18.1642 22 17.75 22Z" fill="black"/>
</svg>
