<svg width="44" height="44" viewBox="0 0 44 44" fill="none" xmlns="http://www.w3.org/2000/svg">
<path d="M22.6376 14.9077C22.9869 14.4799 22.9233 13.8499 22.4956 13.5006C22.0678 13.1513 21.4378 13.2148 21.0885 13.6426L22.6376 14.9077ZM11.5441 26.9112L12.2954 27.5711C12.3033 27.5621 12.3111 27.553 12.3187 27.5437L11.5441 26.9112ZM11.2449 27.6289L10.2471 27.5626C10.2467 27.569 10.2464 27.5754 10.2461 27.5818L11.2449 27.6289ZM11 32.8196L10.0011 32.7725C9.99872 32.8231 10.0002 32.8738 10.0055 32.9242L11 32.8196ZM12.3769 33.9993L12.409 34.9988C12.4745 34.9967 12.5396 34.9881 12.6035 34.9733L12.3769 33.9993ZM17.6256 32.7784L17.8522 33.7524C17.8573 33.7512 17.8624 33.75 17.8675 33.7487L17.6256 32.7784ZM18.2992 32.3595L19.0648 33.003L19.0736 32.9922L18.2992 32.3595ZM29.641 20.0591C29.9904 19.6314 29.927 19.0015 29.4993 18.652C29.0716 18.3026 28.4416 18.366 28.0922 18.7937L29.641 20.0591ZM21.094 13.6424C20.7445 14.07 20.8079 14.7 21.2355 15.0495C21.6632 15.3989 22.2931 15.3356 22.6426 14.9079L21.094 13.6424ZM24.6466 10.8753L25.4209 11.5081C25.4343 11.4917 25.4471 11.475 25.4594 11.4578L24.6466 10.8753ZM27.4966 10.3258L28.1293 9.5514C28.0974 9.52534 28.0639 9.50127 28.029 9.47934L27.4966 10.3258ZM31.4104 13.5231L32.1115 12.81C32.0897 12.7885 32.0668 12.768 32.0431 12.7486L31.4104 13.5231ZM31.9999 14.9326L32.9999 14.9382L32.9999 14.9382L31.9999 14.9326ZM31.3947 16.3356L30.7014 15.6149C30.6728 15.6425 30.6458 15.6717 30.6206 15.7025L31.3947 16.3356ZM28.0925 18.7933C27.7428 19.2207 27.8059 19.8508 28.2334 20.2004C28.6609 20.5501 29.2909 20.487 29.6406 20.0595L28.0925 18.7933ZM22.8568 14.1242C22.7735 13.5782 22.2633 13.2032 21.7173 13.2866C21.1714 13.37 20.7964 13.8801 20.8797 14.4261L22.8568 14.1242ZM28.9987 20.4176C29.5462 20.3446 29.9308 19.8416 29.8578 19.2942C29.7848 18.7468 29.2818 18.3622 28.7344 18.4352L28.9987 20.4176ZM21.0885 13.6426L10.7696 26.2786L12.3187 27.5437L22.6376 14.9077L21.0885 13.6426ZM10.7928 26.2512C10.4723 26.6161 10.2795 27.0763 10.2471 27.5626L12.2427 27.6952C12.2456 27.6519 12.2629 27.6082 12.2954 27.5711L10.7928 26.2512ZM10.2461 27.5818L10.0011 32.7725L11.9989 32.8668L12.2438 27.676L10.2461 27.5818ZM10.0055 32.9242C10.1341 34.148 11.1975 35.0377 12.409 34.9988L12.3448 32.9998C12.1496 33.0061 12.0103 32.8654 11.9945 32.7151L10.0055 32.9242ZM12.6035 34.9733L17.8522 33.7524L17.3991 31.8044L12.1504 33.0253L12.6035 34.9733ZM17.8675 33.7487C18.3341 33.6324 18.7541 33.3724 19.0647 33.0029L17.5337 31.716C17.4974 31.7592 17.4455 31.7927 17.3837 31.8081L17.8675 33.7487ZM19.0736 32.9922L29.641 20.0591L28.0922 18.7937L17.5248 31.7267L19.0736 32.9922ZM22.6426 14.9079L25.4209 11.5081L23.8723 10.2425L21.094 13.6424L22.6426 14.9079ZM25.4594 11.4578C25.7947 10.99 26.4601 10.8553 26.9643 11.1723L28.029 9.47934C26.6399 8.60565 24.7922 8.95539 23.8338 10.2928L25.4594 11.4578ZM26.864 11.1003L30.7778 14.2975L32.0431 12.7486L28.1293 9.5514L26.864 11.1003ZM30.7093 14.2361C30.899 14.4226 31.0014 14.6717 30.9999 14.927L32.9999 14.9382C33.0044 14.137 32.6823 13.3712 32.1115 12.81L30.7093 14.2361ZM30.9999 14.927C30.9985 15.1822 30.8934 15.4303 30.7014 15.6149L32.0879 17.0563C32.6648 16.5015 32.9954 15.7393 32.9999 14.9382L30.9999 14.927ZM30.6206 15.7025L28.0925 18.7933L29.6406 20.0595L32.1687 16.9688L30.6206 15.7025ZM20.8797 14.4261C21.4693 18.2874 25.0994 20.9376 28.9987 20.4176L28.7344 18.4352C25.8825 18.8155 23.277 16.8758 22.8568 14.1242L20.8797 14.4261Z" fill="black"/>
</svg>
