<svg width="44" height="44" viewBox="0 0 44 44" fill="none" xmlns="http://www.w3.org/2000/svg">
<path d="M22.444 14.7495C22.706 14.4287 22.6583 13.9562 22.3374 13.6942C22.0166 13.4322 21.5441 13.4799 21.2822 13.8007L22.444 14.7495ZM11.5441 26.9112L12.1076 27.4061C12.1135 27.3994 12.1193 27.3925 12.125 27.3855L11.5441 26.9112ZM11.2449 27.6289L10.4966 27.5792C10.4963 27.584 10.496 27.5888 10.4958 27.5935L11.2449 27.6289ZM11 32.8196L10.2508 32.7843C10.249 32.8222 10.2501 32.8603 10.2541 32.898L11 32.8196ZM12.3769 33.9993L12.401 34.7489C12.4501 34.7473 12.499 34.7409 12.5468 34.7298L12.3769 33.9993ZM17.6256 32.7784L17.7955 33.509L17.807 33.5062L17.6256 32.7784ZM18.2992 32.3595L18.8734 32.8421L18.88 32.834L18.2992 32.3595ZM29.4474 19.9009C29.7094 19.5802 29.6619 19.1077 29.3411 18.8456C29.0204 18.5835 28.5479 18.6311 28.2858 18.9518L29.4474 19.9009ZM21.2875 13.8006C21.0254 14.1213 21.073 14.5938 21.3937 14.8559C21.7144 15.118 22.1869 15.0705 22.449 14.7497L21.2875 13.8006ZM24.6466 10.8753L25.2273 11.3499C25.2374 11.3376 25.247 11.3251 25.2562 11.3122L24.6466 10.8753ZM27.4966 10.3258L27.9711 9.74501C27.9472 9.72547 27.9221 9.70742 27.8959 9.69097L27.4966 10.3258ZM31.4104 13.5231L31.9363 12.9883C31.9199 12.9721 31.9027 12.9568 31.8849 12.9422L31.4104 13.5231ZM31.9999 14.9326L32.7499 14.9368V14.9368L31.9999 14.9326ZM31.3947 16.3356L30.8748 15.7951C30.8533 15.8158 30.833 15.8377 30.8141 15.8608L31.3947 16.3356ZM28.286 18.9515C28.0238 19.2722 28.0711 19.7447 28.3917 20.0069C28.7123 20.2692 29.1848 20.2219 29.4471 19.9012L28.286 18.9515ZM22.6097 14.1619C22.5472 13.7525 22.1645 13.4712 21.7551 13.5337C21.3456 13.5962 21.0644 13.9789 21.1269 14.3883L22.6097 14.1619ZM28.9657 20.1698C29.3763 20.1151 29.6647 19.7378 29.61 19.3273C29.5552 18.9167 29.178 18.6282 28.7674 18.683L28.9657 20.1698ZM21.2822 13.8007L10.9632 26.4368L12.125 27.3855L22.444 14.7495L21.2822 13.8007ZM10.9807 26.4162C10.6961 26.7401 10.5252 27.1482 10.4966 27.5792L11.9933 27.6786C11.9998 27.58 12.039 27.4842 12.1076 27.4061L10.9807 26.4162ZM10.4958 27.5935L10.2508 32.7843L11.7492 32.855L11.9941 27.6643L10.4958 27.5935ZM10.2541 32.898C10.3686 33.9876 11.3165 34.7837 12.401 34.7489L12.3528 33.2497C12.0306 33.26 11.7758 33.0257 11.7459 32.7413L10.2541 32.898ZM12.5468 34.7298L17.7955 33.5089L17.4557 32.0479L12.207 33.2688L12.5468 34.7298ZM17.807 33.5062C18.223 33.4025 18.597 33.1708 18.8733 32.842L17.7251 31.8769C17.6545 31.9609 17.5566 32.0227 17.4442 32.0507L17.807 33.5062ZM18.88 32.834L29.4474 19.9009L28.2858 18.9518L17.7184 31.8849L18.88 32.834ZM22.449 14.7497L25.2273 11.3499L24.0658 10.4007L21.2875 13.8006L22.449 14.7497ZM25.2562 11.3122C25.6694 10.7357 26.4826 10.5741 27.0974 10.9607L27.8959 9.69097C26.6174 8.88685 24.9175 9.20972 24.037 10.4384L25.2562 11.3122ZM27.0222 10.9067L30.9359 14.1039L31.8849 12.9422L27.9711 9.74501L27.0222 10.9067ZM30.8846 14.0578C31.1219 14.2912 31.2517 14.6049 31.2499 14.9284L32.7499 14.9368C32.754 14.2038 32.4594 13.5026 31.9363 12.9883L30.8846 14.0578ZM31.2499 14.9284C31.2481 15.2519 31.1148 15.5642 30.8748 15.7951L31.9146 16.8762C32.4433 16.3676 32.7458 15.6697 32.7499 14.9368L31.2499 14.9284ZM30.8141 15.8608L28.286 18.9515L29.4471 19.9012L31.9752 16.8105L30.8141 15.8608ZM21.1269 14.3883C21.6953 18.1109 25.1973 20.6723 28.9657 20.1698L28.7674 18.683C25.7846 19.0807 23.051 17.0522 22.6097 14.1619L21.1269 14.3883Z" fill="black"/>
</svg>
