<svg width="28" height="28" viewBox="0 0 28 28" fill="none" xmlns="http://www.w3.org/2000/svg">
<path d="M10.0474 11.9842C11.1389 11.9842 12.0237 11.0994 12.0237 10.0079C12.0237 8.91643 11.1389 8.03162 10.0474 8.03162C8.95596 8.03162 8.07115 8.91643 8.07115 10.0079C8.07115 11.0994 8.95596 11.9842 10.0474 11.9842Z" fill="black"/>
<path fill-rule="evenodd" clip-rule="evenodd" d="M16.0949 4H11.9051C7.53925 4 4 7.53925 4 11.9051V16.0949C4 20.4607 7.53925 24 11.9051 24H16.0949C20.4607 24 24 20.4607 24 16.0949V11.9051C24 9.80857 23.1671 7.79786 21.6846 6.31536C20.2021 4.83286 18.1914 4 16.0949 4ZM11.9051 5.48221H16.0949C19.3023 5.48723 22.0144 7.85767 22.4486 11.0356H20.917C16.7932 11.0389 12.9801 13.2275 10.8972 16.7866C9.59646 15.7533 7.98336 15.1923 6.32213 15.1957H5.48221V11.9051C5.48765 8.36011 8.36011 5.48765 11.9051 5.48221ZM6.32213 16.6779H5.51186C5.72651 19.0082 7.19158 21.0373 9.33597 21.9743C9.40679 20.6553 9.70429 19.3583 10.2154 18.1403C9.13681 17.1987 7.75391 16.6793 6.32213 16.6779ZM16.0949 22.5178H11.9051C11.5336 22.5163 11.1631 22.4799 10.7984 22.4091C10.9218 16.9065 15.413 12.5074 20.917 12.498H22.5178V16.0949C22.5123 19.6399 19.6399 22.5123 16.0949 22.5178Z" fill="black"/>
</svg>
