<svg width="12" height="12" viewBox="0 0 12 12" fill="none" xmlns="http://www.w3.org/2000/svg">
<path id="Icon" fill-rule="evenodd" clip-rule="evenodd" d="M11.3222 3.44475C10.4118 1.3639 8.27867 0.00609885 5.91056 7.82918e-05C3.35832 -0.0127146 1.08892 1.54337 0.293334 3.85171C-0.502254 6.16005 0.357715 8.69332 2.42194 10.1221C4.48616 11.5508 7.28307 11.5487 9.34489 10.1168L11.1833 11.8667C11.3703 12.0444 11.6731 12.0444 11.86 11.8667C12.0467 11.6888 12.0467 11.4006 11.86 11.2227L10.079 9.52742C11.7426 7.92323 12.2326 5.52559 11.3222 3.44475ZM10.4687 7.39406C9.70425 9.14743 7.90494 10.2894 5.91056 10.2869V10.2626C3.20378 10.2593 1.00642 8.17865 0.988888 5.60225C0.986306 3.70392 2.18604 1.99125 4.02811 1.26365C5.87018 0.53605 7.99137 0.936985 9.40161 2.27931C10.8118 3.62164 11.2331 5.6407 10.4687 7.39406Z" fill="#8F8F8F"/>
</svg>
