<svg width="40" height="40" viewBox="0 0 40 40" fill="none" xmlns="http://www.w3.org/2000/svg">
<rect width="40" height="40" fill="white"/>
<path d="M30.781 14.824C31.1931 14.7818 31.493 14.4136 31.4508 14.0015C31.4087 13.5895 31.0405 13.2896 30.6284 13.3317L30.781 14.824ZM11.2245 16.07L11.2935 16.8168L11.3008 16.8161L11.2245 16.07ZM9.96892 16.8084L9.34765 16.3883L9.34765 16.3883L9.96892 16.8084ZM9.94335 17.9644L9.3749 18.4537C9.4166 18.5021 9.46433 18.545 9.51691 18.5814L9.94335 17.9644ZM15.7662 22.9008C16.1069 23.1363 16.5741 23.051 16.8096 22.7103C17.0451 22.3695 16.9598 21.9024 16.619 21.6669L15.7662 22.9008ZM31.3048 14.5278C31.5533 14.1964 31.4861 13.7263 31.1547 13.4778C30.8233 13.2293 30.3532 13.2965 30.1047 13.6279L31.3048 14.5278ZM18.9566 29.744L18.3565 29.294L18.3522 29.3L18.9566 29.744ZM17.6766 30.4393L17.7164 31.1883L17.7164 31.1883L17.6766 30.4393ZM16.6728 29.8654L15.9243 29.9128C15.9284 29.9766 15.9406 30.0396 15.9606 30.1003L16.6728 29.8654ZM16.9411 22.2364C16.9149 21.823 16.5586 21.5091 16.1452 21.5353C15.7318 21.5615 15.4179 21.9179 15.4441 22.3312L16.9411 22.2364ZM31.0739 14.7307C31.4344 14.5268 31.5614 14.0693 31.3576 13.7087C31.1537 13.3481 30.6961 13.2211 30.3355 13.425L31.0739 14.7307ZM15.8234 21.631C15.4629 21.8349 15.3358 22.2924 15.5397 22.653C15.7436 23.0136 16.2012 23.1406 16.5617 22.9367L15.8234 21.631ZM30.6284 13.3317L11.1482 15.3239L11.3008 16.8161L30.781 14.824L30.6284 13.3317ZM11.1555 15.3232C10.4421 15.389 9.74918 15.7945 9.34765 16.3883L10.5902 17.2286C10.7369 17.0116 11.0221 16.8419 11.2935 16.8168L11.1555 15.3232ZM9.34765 16.3883C8.94335 16.9861 8.83335 17.8244 9.3749 18.4537L10.5118 17.4752C10.5101 17.4732 10.5097 17.4724 10.5092 17.4708C10.5084 17.4686 10.5058 17.46 10.5062 17.4424C10.507 17.4062 10.5216 17.3301 10.5902 17.2286L9.34765 16.3883ZM9.51691 18.5814L15.7662 22.9008L16.619 21.6669L10.3698 17.3475L9.51691 18.5814ZM30.1047 13.6279L18.3566 29.2941L19.5566 30.194L31.3048 14.5278L30.1047 13.6279ZM18.3522 29.3C18.1908 29.5196 17.8983 29.6765 17.6368 29.6904L17.7164 31.1883C18.4322 31.1502 19.1368 30.7654 19.561 30.1881L18.3522 29.3ZM17.6368 29.6904C17.5145 29.6969 17.4418 29.6701 17.4103 29.6521C17.395 29.6434 17.389 29.6367 17.3875 29.635C17.3864 29.6337 17.3859 29.633 17.3851 29.6304L15.9606 30.1003C16.2206 30.8887 16.9957 31.2266 17.7164 31.1883L17.6368 29.6904ZM17.4213 29.818L16.9411 22.2364L15.4441 22.3312L15.9243 29.9128L17.4213 29.818ZM30.3355 13.425L15.8234 21.631L16.5617 22.9367L31.0739 14.7307L30.3355 13.425Z" fill="black"/>
</svg>
