<svg width="28" height="28" viewBox="0 0 28 28" fill="none" xmlns="http://www.w3.org/2000/svg">
<rect width="28" height="28" fill="white"/>
<path d="M23.198 8.97872C23.6096 8.93236 23.9057 8.5611 23.8593 8.14949C23.813 7.73788 23.4417 7.44179 23.0301 7.48815L23.198 8.97872ZM5.67847 10.1973L5.75523 10.9434L5.76242 10.9426L5.67847 10.1973ZM4.54815 10.8614L3.93159 10.4343L3.93159 10.4343L4.54815 10.8614ZM4.5129 11.8801L3.94713 12.3725C3.99003 12.4218 4.0392 12.4652 4.09337 12.5018L4.5129 11.8801ZM9.63358 16.2405C9.97693 16.4722 10.4431 16.3817 10.6748 16.0384C10.9065 15.695 10.816 15.2288 10.4726 14.9971L9.63358 16.2405ZM23.7094 8.68953C23.9613 8.36071 23.8989 7.88995 23.5701 7.63805C23.2413 7.38616 22.7705 7.44853 22.5187 7.77735L23.7094 8.68953ZM12.444 22.1621L11.8486 21.706L11.8443 21.7117L12.444 22.1621ZM11.2924 22.7884L11.3405 23.5368L11.3405 23.5368L11.2924 22.7884ZM10.4012 22.2935L9.65222 22.3325C9.65563 22.3978 9.66755 22.4623 9.68768 22.5245L10.4012 22.2935ZM10.8021 15.5798C10.7805 15.1661 10.4277 14.8483 10.0141 14.8698C9.60041 14.8914 9.28256 15.2442 9.30414 15.6579L10.8021 15.5798ZM23.4832 8.88631C23.8438 8.68243 23.9708 8.22486 23.7669 7.86429C23.563 7.50373 23.1054 7.37672 22.7449 7.5806L23.4832 8.88631ZM9.68396 14.966C9.3234 15.1699 9.19638 15.6274 9.40026 15.988C9.60415 16.3486 10.0617 16.4756 10.4223 16.2717L9.68396 14.966ZM23.0301 7.48815L5.59453 9.452L5.76242 10.9426L23.198 8.97872L23.0301 7.48815ZM5.60172 9.45122C4.94603 9.51868 4.30733 9.89183 3.93159 10.4343L5.1647 11.2884C5.28775 11.1107 5.5296 10.9666 5.75523 10.9433L5.60172 9.45122ZM3.93159 10.4343C3.55525 10.9777 3.42382 11.7711 3.94713 12.3725L5.07868 11.3878C5.08676 11.3971 5.09376 11.4092 5.09788 11.4214C5.10178 11.433 5.10094 11.4381 5.1011 11.4335C5.10147 11.4228 5.10798 11.3703 5.1647 11.2884L3.93159 10.4343ZM4.09337 12.5018L9.63358 16.2405L10.4726 14.9971L4.93244 11.2584L4.09337 12.5018ZM22.5187 7.77735L11.8487 21.706L13.0394 22.6182L23.7094 8.68953L22.5187 7.77735ZM11.8443 21.7117C11.7081 21.8931 11.4599 22.026 11.2442 22.0399L11.3405 23.5368C11.999 23.4945 12.648 23.1395 13.0438 22.6124L11.8443 21.7117ZM11.2442 22.0399C11.1448 22.0463 11.0965 22.0248 11.0871 22.0196C11.0831 22.0174 11.0879 22.0193 11.0958 22.0286C11.1041 22.0384 11.1109 22.0507 11.1147 22.0624L9.68768 22.5245C9.93326 23.2829 10.6809 23.5793 11.3405 23.5368L11.2442 22.0399ZM11.1502 22.2544L10.8021 15.5798L9.30414 15.6579L9.65222 22.3325L11.1502 22.2544ZM22.7449 7.5806L9.68396 14.966L10.4223 16.2717L23.4832 8.88631L22.7449 7.5806Z" fill="black"/>
</svg>
