<svg width="32" height="32" viewBox="0 0 32 32" fill="none" xmlns="http://www.w3.org/2000/svg">
<path fill-rule="evenodd" clip-rule="evenodd" d="M9.98003 4.00259H21.9629C23.5285 3.9556 25.0474 4.55024 26.1814 5.65405C27.3154 6.75786 27.9702 8.27916 28 9.87908V18.7288C27.9067 22.0178 25.24 24.6175 22.02 24.5587H20.1712C19.7065 24.5599 19.2668 24.7738 18.9729 25.1417L17.2268 27.4153C16.9343 27.7851 16.4939 28 16.0285 28C15.5632 28 15.1227 27.7851 14.8302 27.4153L13.0271 25.095C12.7332 24.7272 12.2935 24.5133 11.8288 24.512H9.98003C6.75998 24.5709 4.09329 21.9712 4 18.6822V9.83245C4.08716 6.54065 6.75754 3.93732 9.98003 4.00259ZM21.9743 22.8097C24.2665 22.8685 26.1741 21.0237 26.2425 18.6822V9.87908C26.1742 7.53289 24.2594 5.6862 21.9629 5.75154H9.98003C7.6835 5.6862 5.76877 7.53289 5.70043 9.87908V18.6822C5.76877 21.0284 7.6835 22.8751 9.98003 22.8097H11.8288C12.8184 22.8099 13.7544 23.2688 14.3738 24.0573L15.9715 26.1327L17.5692 24.0573C18.1885 23.2688 19.1246 22.8099 20.1141 22.8097H21.9743Z" fill="black"/>
<path d="M11.6919 12.1178C11.2192 12.1178 10.8359 12.5093 10.8359 12.9922V15.7906C10.8359 16.2735 11.2192 16.665 11.6919 16.665C12.1646 16.665 12.5478 16.2735 12.5478 15.7906V12.9922C12.5478 12.5093 12.1646 12.1178 11.6919 12.1178Z" fill="black"/>
<path d="M15.9715 12.1178C15.4988 12.1178 15.1155 12.5093 15.1155 12.9922V15.7906C15.1155 16.2735 15.4988 16.665 15.9715 16.665C16.4442 16.665 16.8274 16.2735 16.8274 15.7906V12.9922C16.8274 12.5093 16.4442 12.1178 15.9715 12.1178Z" fill="black"/>
<path d="M20.2511 12.1178C19.7784 12.1178 19.3951 12.5093 19.3951 12.9922V15.7906C19.3951 16.2735 19.7784 16.665 20.2511 16.665C20.7238 16.665 21.107 16.2735 21.107 15.7906V12.9922C21.107 12.5093 20.7238 12.1178 20.2511 12.1178Z" fill="black"/>
<path fill-rule="evenodd" clip-rule="evenodd" d="M26 17.2C26 16.6477 25.5522 16.2 25 16.2C24.4477 16.2 24 16.6477 24 17.2V20.7H20.2C19.6477 20.7 19.2 21.1477 19.2 21.7C19.2 22.2523 19.6477 22.7 20.2 22.7H24V26.8C24 27.3523 24.4477 27.8 25 27.8C25.5522 27.8 26 27.3523 26 26.8V22.7H29.8C30.3522 22.7 30.8 22.2523 30.8 21.7C30.8 21.1477 30.3522 20.7 29.8 20.7H26V17.2Z" fill="black"/>
<path d="M24 20.7V21.1H24.4V20.7H24ZM24 22.7H24.4V22.3H24V22.7ZM26 22.7V22.3H25.6V22.7H26ZM26 20.7H25.6V21.1H26V20.7ZM25 16.6C25.3313 16.6 25.6 16.8686 25.6 17.2H26.4C26.4 16.4268 25.7731 15.8 25 15.8V16.6ZM24.4 17.2C24.4 16.8686 24.6686 16.6 25 16.6V15.8C24.2268 15.8 23.6 16.4268 23.6 17.2H24.4ZM24.4 20.7V17.2H23.6V20.7H24.4ZM20.2 21.1H24V20.3H20.2V21.1ZM19.6 21.7C19.6 21.3686 19.8686 21.1 20.2 21.1V20.3C19.4268 20.3 18.8 20.9268 18.8 21.7H19.6ZM20.2 22.3C19.8686 22.3 19.6 22.0314 19.6 21.7H18.8C18.8 22.4732 19.4268 23.1 20.2 23.1V22.3ZM24 22.3H20.2V23.1H24V22.3ZM24.4 26.8V22.7H23.6V26.8H24.4ZM25 27.4C24.6686 27.4 24.4 27.1314 24.4 26.8H23.6C23.6 27.5732 24.2268 28.2 25 28.2V27.4ZM25.6 26.8C25.6 27.1314 25.3313 27.4 25 27.4V28.2C25.7731 28.2 26.4 27.5732 26.4 26.8H25.6ZM25.6 22.7V26.8H26.4V22.7H25.6ZM29.8 22.3H26V23.1H29.8V22.3ZM30.4 21.7C30.4 22.0314 30.1313 22.3 29.8 22.3V23.1C30.5732 23.1 31.2 22.4732 31.2 21.7H30.4ZM29.8 21.1C30.1313 21.1 30.4 21.3686 30.4 21.7H31.2C31.2 20.9268 30.5732 20.3 29.8 20.3V21.1ZM26 21.1H29.8V20.3H26V21.1ZM25.6 17.2V20.7H26.4V17.2H25.6Z" fill="white"/>
</svg>
