<svg width="44" height="44" viewBox="0 0 44 44" fill="none" xmlns="http://www.w3.org/2000/svg">
<path d="M16.8572 25.4286C17.168 26.2382 17.6773 26.9568 18.3383 27.5183C20.4405 29.2828 23.4998 29.3051 25.6275 27.5714C26.2976 27.0199 26.8186 26.3091 27.1429 25.504" stroke="black" stroke-width="1.5" stroke-linecap="round" stroke-linejoin="round"/>
<path fill-rule="evenodd" clip-rule="evenodd" d="M34 22C34 28.6274 28.6274 34 22 34C15.3726 34 10 28.6274 10 22C10 15.3726 15.3726 10 22 10C25.1826 10 28.2348 11.2643 30.4853 13.5147C32.7357 15.7652 34 18.8174 34 22Z" stroke="black" stroke-width="1.5" stroke-linecap="round" stroke-linejoin="round"/>
<path d="M16.8571 20.2857V18.5714" stroke="black" stroke-width="1.5" stroke-linecap="round"/>
<path d="M27.1428 20.2857V18.5714" stroke="black" stroke-width="1.5" stroke-linecap="round"/>
</svg>
