<svg width="38" height="37" viewBox="0 0 38 37" fill="none" xmlns="http://www.w3.org/2000/svg">
<path d="M19.225 0.704172C14.8145 0.687537 10.5429 2.24538 7.17865 5.09743C3.81438 7.94948 1.57834 11.9085 0.872816 16.2622C0.167293 20.6159 1.03861 25.0785 3.33 28.847C5.62139 32.6156 9.18242 35.4427 13.3724 36.8198C14.2985 36.968 14.5948 36.3938 14.5948 35.8938V32.7637C9.46453 33.875 8.3718 30.3375 8.3718 30.3375C8.02592 29.1872 7.2761 28.2006 6.26042 27.5594C4.57503 26.4111 6.39007 26.4481 6.39007 26.4481C6.97144 26.5233 7.52829 26.729 8.01899 27.0497C8.50968 27.3704 8.92154 27.7979 9.22376 28.3002C9.73823 29.215 10.593 29.8897 11.6023 30.1775C12.6116 30.4654 13.6937 30.3432 14.6133 29.8374C14.6977 28.8985 15.1109 28.0196 15.7801 27.3557C11.8167 26.9482 7.40872 25.3554 7.40872 18.299C7.35514 16.4496 8.01878 14.6511 9.2608 13.2798C8.69691 11.686 8.76316 9.93693 9.44601 8.39032C9.44601 8.39032 11.0018 7.89026 14.5392 10.2424C17.5722 9.42707 20.7667 9.42707 23.7997 10.2424C27.3371 7.85321 28.8929 8.39032 28.8929 8.39032C29.5757 9.93693 29.642 11.686 29.0781 13.2798C30.3201 14.6511 30.9837 16.4496 30.9302 18.299C30.9302 25.3739 26.5963 26.9297 22.4662 27.3927C22.911 27.8398 23.2551 28.3768 23.4755 28.9677C23.6959 29.5587 23.7875 30.1899 23.7441 30.819V35.8938C23.7441 36.3938 24.0404 36.9865 24.985 36.8198C29.1673 35.4451 32.7232 32.6256 35.0151 28.8667C37.307 25.1079 38.185 20.6555 37.4916 16.308C36.7982 11.9605 34.5788 8.00214 31.2314 5.14267C27.884 2.28321 23.6275 0.709665 19.225 0.704172Z" fill="black"/>
</svg>
