<svg xmlns="http://www.w3.org/2000/svg" width="2.1rem" height="1.3rem" fill="none"><path fill="#000" fill-rule="evenodd" d="M20.135 1.682c0-.633-.478-1.146-1.067-1.146h-1.066c-.59 0-1.067.513-1.067 1.146v9.934c0 .633.478 1.146 1.067 1.146h1.066c.59 0 1.067-.513 1.067-1.146V1.682Zm-7.434 1.3h1.067c.589 0 1.066.525 1.066 1.173v7.433c0 .649-.477 1.174-1.066 1.174H12.7c-.59 0-1.067-.525-1.067-1.174V4.155c0-.648.478-1.174 1.067-1.174ZM8.369 5.63H7.303c-.59 0-1.067.532-1.067 1.189v4.755c0 .656.477 1.188 1.067 1.188h1.066c.59 0 1.067-.532 1.067-1.188V6.819c0-.657-.478-1.189-1.067-1.189Zm-5.3 2.445H2.001c-.59 0-1.067.525-1.067 1.172v2.344c0 .647.478 1.171 1.067 1.171h1.066c.59 0 1.067-.524 1.067-1.171V9.247c0-.647-.477-1.172-1.067-1.172Z" clip-rule="evenodd"/></svg>